<?xml version="1.0" encoding="UTF-8"?>
<svg xmlns="http://www.w3.org/2000/svg" width="589" height="125">
   <defs>
      <style type="text/css">
    @namespace "http://www.w3.org/2000/svg";
    .line                 {fill: none; stroke: #262626; stroke-width: 1;}
    .bold-line            {stroke: #0A0A0A; shape-rendering: crispEdges; stroke-width: 2;}
    .thin-line            {stroke: #0F0F0F; shape-rendering: crispEdges}
    .filled               {fill: #262626; stroke: none;}
    text.terminal         {font-family: Verdana, Sans-serif;
                            font-size: 12px;
                            fill: #0A0A0A;
                            font-weight: bold;
                          }
    text.nonterminal      {font-family: Verdana, Sans-serif;
                            font-size: 12px;
                            fill: #0D0D0D;
                            font-weight: normal;
                          }
    text.regexp           {font-family: Verdana, Sans-serif;
                            font-size: 12px;
                            fill: #0F0F0F;
                            font-weight: normal;
                          }
    rect, circle, polygon {fill: #262626; stroke: #262626;}
    rect.terminal         {fill: #FFFFFF; stroke: #262626; stroke-width: 1;}
    rect.nonterminal      {fill: #FFFFFF; stroke: #262626; stroke-width: 1;}
    rect.text             {fill: none; stroke: none;}
    polygon.regexp        {fill: #FFFFFF; stroke: #262626; stroke-width: 1;}
  </style>
   </defs>
   <polygon points="9 17 1 13 1 21"/>
   <polygon points="17 17 9 13 9 21"/>
   <rect x="31" y="3" width="60" height="32" rx="10"/>
   <rect x="29"
         y="1"
         width="60"
         height="32"
         class="terminal"
         rx="10"/>
   <text class="terminal" x="39" y="21">action</text>
   <rect x="111" y="3" width="30" height="32" rx="10"/>
   <rect x="109"
         y="1"
         width="30"
         height="32"
         class="terminal"
         rx="10"/>
   <text class="terminal" x="119" y="21">=</text>
   <rect x="161" y="3" width="26" height="32" rx="10"/>
   <rect x="159"
         y="1"
         width="26"
         height="32"
         class="terminal"
         rx="10"/>
   <text class="terminal" x="169" y="21">"</text>
   <rect x="227" y="3" width="88" height="32" rx="10"/>
   <rect x="225"
         y="1"
         width="88"
         height="32"
         class="terminal"
         rx="10"/>
   <text class="terminal" x="235" y="21">pushState</text>
   <rect x="227" y="47" width="80" height="32" rx="10"/>
   <rect x="225"
         y="45"
         width="80"
         height="32"
         class="terminal"
         rx="10"/>
   <text class="terminal" x="235" y="65">popState</text>
   <rect x="227" y="91" width="104" height="32" rx="10"/>
   <rect x="225"
         y="89"
         width="104"
         height="32"
         class="terminal"
         rx="10"/>
   <text class="terminal" x="235" y="109">changeState</text>
   <rect x="371" y="3" width="26" height="32" rx="10"/>
   <rect x="369"
         y="1"
         width="26"
         height="32"
         class="terminal"
         rx="10"/>
   <text class="terminal" x="379" y="21">(</text>
   <a xmlns:xlink="http://www.w3.org/1999/xlink"
      xlink:href="#state"
      xlink:title="state">
      <rect x="417" y="3" width="52" height="32"/>
      <rect x="415" y="1" width="52" height="32" class="nonterminal"/>
      <text class="nonterminal" x="425" y="21">state</text>
   </a>
   <rect x="489" y="3" width="26" height="32" rx="10"/>
   <rect x="487"
         y="1"
         width="26"
         height="32"
         class="terminal"
         rx="10"/>
   <text class="terminal" x="497" y="21">)</text>
   <rect x="535" y="3" width="26" height="32" rx="10"/>
   <rect x="533"
         y="1"
         width="26"
         height="32"
         class="terminal"
         rx="10"/>
   <text class="terminal" x="543" y="21">"</text>
   <path class="line"
         d="m17 17 h2 m0 0 h10 m60 0 h10 m0 0 h10 m30 0 h10 m0 0 h10 m26 0 h10 m20 0 h10 m88 0 h10 m0 0 h16 m-144 0 h20 m124 0 h20 m-164 0 q10 0 10 10 m144 0 q0 -10 10 -10 m-154 10 v24 m144 0 v-24 m-144 24 q0 10 10 10 m124 0 q10 0 10 -10 m-134 10 h10 m80 0 h10 m0 0 h24 m-134 -10 v20 m144 0 v-20 m-144 20 v24 m144 0 v-24 m-144 24 q0 10 10 10 m124 0 q10 0 10 -10 m-134 10 h10 m104 0 h10 m20 -88 h10 m26 0 h10 m0 0 h10 m52 0 h10 m0 0 h10 m26 0 h10 m0 0 h10 m26 0 h10 m3 0 h-3"/>
   <polygon points="579 17 587 13 587 21"/>
   <polygon points="579 17 571 13 571 21"/>
</svg>
