<?xml version="1.0" encoding="UTF-8"?>
<svg xmlns="http://www.w3.org/2000/svg" width="267" height="81">
   <defs>
      <style type="text/css">
    @namespace "http://www.w3.org/2000/svg";
    .line                 {fill: none; stroke: #262626; stroke-width: 1;}
    .bold-line            {stroke: #0A0A0A; shape-rendering: crispEdges; stroke-width: 2;}
    .thin-line            {stroke: #0F0F0F; shape-rendering: crispEdges}
    .filled               {fill: #262626; stroke: none;}
    text.terminal         {font-family: Verdana, Sans-serif;
                            font-size: 12px;
                            fill: #0A0A0A;
                            font-weight: bold;
                          }
    text.nonterminal      {font-family: Verdana, Sans-serif;
                            font-size: 12px;
                            fill: #0D0D0D;
                            font-weight: normal;
                          }
    text.regexp           {font-family: Verdana, Sans-serif;
                            font-size: 12px;
                            fill: #0F0F0F;
                            font-weight: normal;
                          }
    rect, circle, polygon {fill: #262626; stroke: #262626;}
    rect.terminal         {fill: #FFFFFF; stroke: #262626; stroke-width: 1;}
    rect.nonterminal      {fill: #FFFFFF; stroke: #262626; stroke-width: 1;}
    rect.text             {fill: none; stroke: none;}
    polygon.regexp        {fill: #FFFFFF; stroke: #262626; stroke-width: 1;}
  </style>
   </defs>
   <polygon points="9 17 1 13 1 21"/>
   <polygon points="17 17 9 13 9 21"/>
   <rect x="51" y="3" width="36" height="32" rx="10"/>
   <rect x="49"
         y="1"
         width="36"
         height="32"
         class="terminal"
         rx="10"/>
   <text class="terminal" x="59" y="21">//</text>
   <a xmlns:xlink="http://www.w3.org/1999/xlink"
      xlink:href="#string"
      xlink:title="string">
      <rect x="107" y="3" width="56" height="32"/>
      <rect x="105" y="1" width="56" height="32" class="nonterminal"/>
      <text class="nonterminal" x="115" y="21">string</text>
   </a>
   <rect x="51" y="47" width="36" height="32" rx="10"/>
   <rect x="49"
         y="45"
         width="36"
         height="32"
         class="terminal"
         rx="10"/>
   <text class="terminal" x="59" y="65">/*</text>
   <a xmlns:xlink="http://www.w3.org/1999/xlink"
      xlink:href="#string"
      xlink:title="string">
      <rect x="107" y="47" width="56" height="32"/>
      <rect x="105" y="45" width="56" height="32" class="nonterminal"/>
      <text class="nonterminal" x="115" y="65">string</text>
   </a>
   <rect x="183" y="47" width="36" height="32" rx="10"/>
   <rect x="181"
         y="45"
         width="36"
         height="32"
         class="terminal"
         rx="10"/>
   <text class="terminal" x="191" y="65">*/</text>
   <path class="line"
         d="m17 17 h2 m20 0 h10 m36 0 h10 m0 0 h10 m56 0 h10 m0 0 h56 m-208 0 h20 m188 0 h20 m-228 0 q10 0 10 10 m208 0 q0 -10 10 -10 m-218 10 v24 m208 0 v-24 m-208 24 q0 10 10 10 m188 0 q10 0 10 -10 m-198 10 h10 m36 0 h10 m0 0 h10 m56 0 h10 m0 0 h10 m36 0 h10 m23 -44 h-3"/>
   <polygon points="257 17 265 13 265 21"/>
   <polygon points="257 17 249 13 249 21"/>
</svg>
