<?xml version="1.0" encoding="UTF-8"?>
<svg xmlns="http://www.w3.org/2000/svg" width="327" height="71">
   <defs>
      <style type="text/css">
    @namespace "http://www.w3.org/2000/svg";
    .line                 {fill: none; stroke: #262626; stroke-width: 1;}
    .bold-line            {stroke: #0A0A0A; shape-rendering: crispEdges; stroke-width: 2;}
    .thin-line            {stroke: #0F0F0F; shape-rendering: crispEdges}
    .filled               {fill: #262626; stroke: none;}
    text.terminal         {font-family: Verdana, Sans-serif;
                            font-size: 12px;
                            fill: #0A0A0A;
                            font-weight: bold;
                          }
    text.nonterminal      {font-family: Verdana, Sans-serif;
                            font-size: 12px;
                            fill: #0D0D0D;
                            font-weight: normal;
                          }
    text.regexp           {font-family: Verdana, Sans-serif;
                            font-size: 12px;
                            fill: #0F0F0F;
                            font-weight: normal;
                          }
    rect, circle, polygon {fill: #262626; stroke: #262626;}
    rect.terminal         {fill: #FFFFFF; stroke: #262626; stroke-width: 1;}
    rect.nonterminal      {fill: #FFFFFF; stroke: #262626; stroke-width: 1;}
    rect.text             {fill: none; stroke: none;}
    polygon.regexp        {fill: #FFFFFF; stroke: #262626; stroke-width: 1;}
  </style>
   </defs>
   <polygon points="9 51 1 47 1 55"/>
   <polygon points="17 51 9 47 9 55"/>
   <polygon points="51 19 58 3 106 3 113 19 106 35 58 35"/>
   <polygon points="49 17 56 1 104 1 111 17 104 33 56 33" class="regexp"/>
   <text class="regexp" x="64" y="21">[0-9]</text>
   <rect x="173" y="37" width="24" height="32" rx="10"/>
   <rect x="171"
         y="35"
         width="24"
         height="32"
         class="terminal"
         rx="10"/>
   <text class="terminal" x="181" y="55">.</text>
   <polygon points="217 53 224 37 272 37 279 53 272 69 224 69"/>
   <polygon points="215 51 222 35 270 35 277 51 270 67 222 67" class="regexp"/>
   <text class="regexp" x="230" y="55">[0-9]</text>
   <path class="line"
         d="m17 51 h2 m20 0 h10 m0 0 h72 m-102 0 l20 0 m-1 0 q-9 0 -9 -10 l0 -14 q0 -10 10 -10 m82 34 l20 0 m-20 0 q10 0 10 -10 l0 -14 q0 -10 -10 -10 m-82 0 h10 m62 0 h10 m40 34 h10 m24 0 h10 m0 0 h10 m62 0 h10 m-146 0 l20 0 m-1 0 q-9 0 -9 -10 l0 -12 q0 -10 10 -10 m126 32 l20 0 m-20 0 q10 0 10 -10 l0 -12 q0 -10 -10 -10 m-126 0 h10 m0 0 h116 m23 32 h-3"/>
   <polygon points="317 51 325 47 325 55"/>
   <polygon points="317 51 309 47 309 55"/>
</svg>
