<?xml version="1.0" encoding="UTF-8"?>
<svg xmlns="http://www.w3.org/2000/svg" width="713" height="485">
   <defs>
      <style type="text/css">
    @namespace "http://www.w3.org/2000/svg";
    .line                 {fill: none; stroke: #262626; stroke-width: 1;}
    .bold-line            {stroke: #0A0A0A; shape-rendering: crispEdges; stroke-width: 2;}
    .thin-line            {stroke: #0F0F0F; shape-rendering: crispEdges}
    .filled               {fill: #262626; stroke: none;}
    text.terminal         {font-family: Verdana, Sans-serif;
                            font-size: 12px;
                            fill: #0A0A0A;
                            font-weight: bold;
                          }
    text.nonterminal      {font-family: Verdana, Sans-serif;
                            font-size: 12px;
                            fill: #0D0D0D;
                            font-weight: normal;
                          }
    text.regexp           {font-family: Verdana, Sans-serif;
                            font-size: 12px;
                            fill: #0F0F0F;
                            font-weight: normal;
                          }
    rect, circle, polygon {fill: #262626; stroke: #262626;}
    rect.terminal         {fill: #FFFFFF; stroke: #262626; stroke-width: 1;}
    rect.nonterminal      {fill: #FFFFFF; stroke: #262626; stroke-width: 1;}
    rect.text             {fill: none; stroke: none;}
    polygon.regexp        {fill: #FFFFFF; stroke: #262626; stroke-width: 1;}
  </style>
   </defs>
   <polygon points="9 17 1 13 1 21"/>
   <polygon points="17 17 9 13 9 21"/>
   <rect x="31" y="3" width="28" height="32" rx="10"/>
   <rect x="29"
         y="1"
         width="28"
         height="32"
         class="terminal"
         rx="10"/>
   <text class="terminal" x="39" y="21">{</text>
   <rect x="139" y="35" width="56" height="32" rx="10"/>
   <rect x="137"
         y="33"
         width="56"
         height="32"
         class="terminal"
         rx="10"/>
   <text class="terminal" x="147" y="53">name</text>
   <rect x="139" y="79" width="148" height="32" rx="10"/>
   <rect x="137"
         y="77"
         width="148"
         height="32"
         class="terminal"
         rx="10"/>
   <text class="terminal" x="147" y="97">regular-expression</text>
   <rect x="327" y="35" width="30" height="32" rx="10"/>
   <rect x="325"
         y="33"
         width="30"
         height="32"
         class="terminal"
         rx="10"/>
   <text class="terminal" x="335" y="53">=</text>
   <a xmlns:xlink="http://www.w3.org/1999/xlink"
      xlink:href="#string"
      xlink:title="string">
      <rect x="377" y="35" width="56" height="32"/>
      <rect x="375" y="33" width="56" height="32" class="nonterminal"/>
      <text class="nonterminal" x="385" y="53">string</text>
   </a>
   <rect x="119" y="123" width="144" height="32" rx="10"/>
   <rect x="117"
         y="121"
         width="144"
         height="32"
         class="terminal"
         rx="10"/>
   <text class="terminal" x="127" y="141">type = "MultiPart"</text>
   <rect x="119" y="167" width="78" height="32" rx="10"/>
   <rect x="117"
         y="165"
         width="78"
         height="32"
         class="terminal"
         rx="10"/>
   <text class="terminal" x="127" y="185">mapping</text>
   <rect x="217" y="167" width="30" height="32" rx="10"/>
   <rect x="215"
         y="165"
         width="30"
         height="32"
         class="terminal"
         rx="10"/>
   <text class="terminal" x="225" y="185">=</text>
   <a xmlns:xlink="http://www.w3.org/1999/xlink"
      xlink:href="#MessageMapping"
      xlink:title="MessageMapping">
      <rect x="267" y="167" width="130" height="32"/>
      <rect x="265" y="165" width="130" height="32" class="nonterminal"/>
      <text class="nonterminal" x="275" y="185">MessageMapping</text>
   </a>
   <rect x="139" y="233" width="60" height="32" rx="10"/>
   <rect x="137"
         y="231"
         width="60"
         height="32"
         class="terminal"
         rx="10"/>
   <text class="terminal" x="147" y="251">states</text>
   <rect x="219" y="233" width="30" height="32" rx="10"/>
   <rect x="217"
         y="231"
         width="30"
         height="32"
         class="terminal"
         rx="10"/>
   <text class="terminal" x="227" y="251">=</text>
   <rect x="269" y="233" width="26" height="32" rx="10"/>
   <rect x="267"
         y="231"
         width="26"
         height="32"
         class="terminal"
         rx="10"/>
   <text class="terminal" x="277" y="251">[</text>
   <a xmlns:xlink="http://www.w3.org/1999/xlink"
      xlink:href="#string"
      xlink:title="string">
      <rect x="335" y="233" width="56" height="32"/>
      <rect x="333" y="231" width="56" height="32" class="nonterminal"/>
      <text class="nonterminal" x="343" y="251">string</text>
   </a>
   <rect x="431" y="265" width="24" height="32" rx="10"/>
   <rect x="429"
         y="263"
         width="24"
         height="32"
         class="terminal"
         rx="10"/>
   <text class="terminal" x="439" y="283">,</text>
   <rect x="139" y="331" width="54" height="32" rx="10"/>
   <rect x="137"
         y="329"
         width="54"
         height="32"
         class="terminal"
         rx="10"/>
   <text class="terminal" x="147" y="349">parts</text>
   <rect x="213" y="331" width="30" height="32" rx="10"/>
   <rect x="211"
         y="329"
         width="30"
         height="32"
         class="terminal"
         rx="10"/>
   <text class="terminal" x="221" y="349">=</text>
   <rect x="263" y="331" width="26" height="32" rx="10"/>
   <rect x="261"
         y="329"
         width="26"
         height="32"
         class="terminal"
         rx="10"/>
   <text class="terminal" x="271" y="349">[</text>
   <a xmlns:xlink="http://www.w3.org/1999/xlink"
      xlink:href="#ElementPart"
      xlink:title="ElementPart">
      <rect x="329" y="331" width="98" height="32"/>
      <rect x="327" y="329" width="98" height="32" class="nonterminal"/>
      <text class="nonterminal" x="337" y="349">ElementPart</text>
   </a>
   <rect x="467" y="363" width="24" height="32" rx="10"/>
   <rect x="465"
         y="361"
         width="24"
         height="32"
         class="terminal"
         rx="10"/>
   <text class="terminal" x="475" y="381">,</text>
   <rect x="571" y="233" width="26" height="32" rx="10"/>
   <rect x="569"
         y="231"
         width="26"
         height="32"
         class="terminal"
         rx="10"/>
   <text class="terminal" x="579" y="251">]</text>
   <a xmlns:xlink="http://www.w3.org/1999/xlink"
      xlink:href="#Action"
      xlink:title="Action">
      <rect x="119" y="407" width="58" height="32"/>
      <rect x="117" y="405" width="58" height="32" class="nonterminal"/>
      <text class="nonterminal" x="127" y="425">Action</text>
   </a>
   <rect x="119" y="451" width="210" height="32" rx="10"/>
   <rect x="117"
         y="449"
         width="210"
         height="32"
         class="terminal"
         rx="10"/>
   <text class="terminal" x="127" y="469">token-group-length-formula</text>
   <rect x="349" y="451" width="30" height="32" rx="10"/>
   <rect x="347"
         y="449"
         width="30"
         height="32"
         class="terminal"
         rx="10"/>
   <text class="terminal" x="357" y="469">=</text>
   <a xmlns:xlink="http://www.w3.org/1999/xlink"
      xlink:href="#Formula"
      xlink:title="Formula">
      <rect x="399" y="451" width="70" height="32"/>
      <rect x="397" y="449" width="70" height="32" class="nonterminal"/>
      <text class="nonterminal" x="407" y="469">Formula</text>
   </a>
   <rect x="657" y="3" width="28" height="32" rx="10"/>
   <rect x="655"
         y="1"
         width="28"
         height="32"
         class="terminal"
         rx="10"/>
   <text class="terminal" x="665" y="21">}</text>
   <path class="line"
         d="m17 17 h2 m0 0 h10 m28 0 h10 m40 0 h10 m0 0 h488 m-518 0 h20 m498 0 h20 m-538 0 q10 0 10 10 m518 0 q0 -10 10 -10 m-528 10 v12 m518 0 v-12 m-518 12 q0 10 10 10 m498 0 q10 0 10 -10 m-488 10 h10 m56 0 h10 m0 0 h92 m-188 0 h20 m168 0 h20 m-208 0 q10 0 10 10 m188 0 q0 -10 10 -10 m-198 10 v24 m188 0 v-24 m-188 24 q0 10 10 10 m168 0 q10 0 10 -10 m-178 10 h10 m148 0 h10 m20 -44 h10 m30 0 h10 m0 0 h10 m56 0 h10 m0 0 h164 m-508 -10 v20 m518 0 v-20 m-518 20 v68 m518 0 v-68 m-518 68 q0 10 10 10 m498 0 q10 0 10 -10 m-508 10 h10 m144 0 h10 m0 0 h334 m-508 -10 v20 m518 0 v-20 m-518 20 v24 m518 0 v-24 m-518 24 q0 10 10 10 m498 0 q10 0 10 -10 m-508 10 h10 m78 0 h10 m0 0 h10 m30 0 h10 m0 0 h10 m130 0 h10 m0 0 h200 m-508 -10 v20 m518 0 v-20 m-518 20 v46 m518 0 v-46 m-518 46 q0 10 10 10 m498 0 q10 0 10 -10 m-488 10 h10 m60 0 h10 m0 0 h10 m30 0 h10 m0 0 h10 m26 0 h10 m20 0 h10 m56 0 h10 m20 0 h10 m0 0 h34 m-64 0 h20 m44 0 h20 m-84 0 q10 0 10 10 m64 0 q0 -10 10 -10 m-74 10 v12 m64 0 v-12 m-64 12 q0 10 10 10 m44 0 q10 0 10 -10 m-54 10 h10 m24 0 h10 m-160 -32 l20 0 m-1 0 q-9 0 -9 -10 l0 -12 q0 -10 10 -10 m160 32 l20 0 m-20 0 q10 0 10 -10 l0 -12 q0 -10 -10 -10 m-160 0 h10 m0 0 h150 m20 32 h36 m-432 0 h20 m412 0 h20 m-452 0 q10 0 10 10 m432 0 q0 -10 10 -10 m-442 10 v78 m432 0 v-78 m-432 78 q0 10 10 10 m412 0 q10 0 10 -10 m-422 10 h10 m54 0 h10 m0 0 h10 m30 0 h10 m0 0 h10 m26 0 h10 m20 0 h10 m98 0 h10 m20 0 h10 m0 0 h34 m-64 0 h20 m44 0 h20 m-84 0 q10 0 10 10 m64 0 q0 -10 10 -10 m-74 10 v12 m64 0 v-12 m-64 12 q0 10 10 10 m44 0 q10 0 10 -10 m-54 10 h10 m24 0 h10 m-202 -32 l20 0 m-1 0 q-9 0 -9 -10 l0 -12 q0 -10 10 -10 m202 32 l20 0 m-20 0 q10 0 10 -10 l0 -12 q0 -10 -10 -10 m-202 0 h10 m0 0 h192 m40 -66 h10 m26 0 h10 m-508 -10 v20 m518 0 v-20 m-518 20 v154 m518 0 v-154 m-518 154 q0 10 10 10 m498 0 q10 0 10 -10 m-508 10 h10 m58 0 h10 m0 0 h420 m-508 -10 v20 m518 0 v-20 m-518 20 v24 m518 0 v-24 m-518 24 q0 10 10 10 m498 0 q10 0 10 -10 m-508 10 h10 m210 0 h10 m0 0 h10 m30 0 h10 m0 0 h10 m70 0 h10 m0 0 h128 m-538 -448 l20 0 m-1 0 q-9 0 -9 -10 l0 4 q0 -10 10 -10 m538 16 l20 0 m-20 0 q10 0 10 -10 l0 4 q0 -10 -10 -10 m-538 0 h10 m0 0 h528 m20 16 h10 m28 0 h10 m3 0 h-3"/>
   <polygon points="703 17 711 13 711 21"/>
   <polygon points="703 17 695 13 695 21"/>
</svg>
