<?xml version="1.0" encoding="UTF-8"?>
<svg xmlns="http://www.w3.org/2000/svg" width="293" height="185">
   <defs>
      <style type="text/css">
    @namespace "http://www.w3.org/2000/svg";
    .line                 {fill: none; stroke: #262626; stroke-width: 1;}
    .bold-line            {stroke: #0A0A0A; shape-rendering: crispEdges; stroke-width: 2;}
    .thin-line            {stroke: #0F0F0F; shape-rendering: crispEdges}
    .filled               {fill: #262626; stroke: none;}
    text.terminal         {font-family: Verdana, Sans-serif;
                            font-size: 12px;
                            fill: #0A0A0A;
                            font-weight: bold;
                          }
    text.nonterminal      {font-family: Verdana, Sans-serif;
                            font-size: 12px;
                            fill: #0D0D0D;
                            font-weight: normal;
                          }
    text.regexp           {font-family: Verdana, Sans-serif;
                            font-size: 12px;
                            fill: #0F0F0F;
                            font-weight: normal;
                          }
    rect, circle, polygon {fill: #262626; stroke: #262626;}
    rect.terminal         {fill: #FFFFFF; stroke: #262626; stroke-width: 1;}
    rect.nonterminal      {fill: #FFFFFF; stroke: #262626; stroke-width: 1;}
    rect.text             {fill: none; stroke: none;}
    polygon.regexp        {fill: #FFFFFF; stroke: #262626; stroke-width: 1;}
  </style>
   </defs>
   <polygon points="9 33 1 29 1 37"/>
   <polygon points="17 33 9 29 9 37"/>
   <rect x="31" y="19" width="26" height="32" rx="10"/>
   <rect x="29"
         y="17"
         width="26"
         height="32"
         class="terminal"
         rx="10"/>
   <text class="terminal" x="39" y="37">"</text>
   <polygon points="117 35 124 19 170 19 177 35 170 51 124 51"/>
   <polygon points="115 33 122 17 168 17 175 33 168 49 122 49" class="regexp"/>
   <text class="regexp" x="130" y="37">[a-z]</text>
   <polygon points="117 79 124 63 172 63 179 79 172 95 124 95"/>
   <polygon points="115 77 122 61 170 61 177 77 170 93 122 93" class="regexp"/>
   <text class="regexp" x="130" y="81">[A-Z]</text>
   <polygon points="117 123 124 107 172 107 179 123 172 139 124 139"/>
   <polygon points="115 121 122 105 170 105 177 121 170 137 122 137" class="regexp"/>
   <text class="regexp" x="130" y="125">[0-9]</text>
   <rect x="117" y="151" width="26" height="32" rx="10"/>
   <rect x="115"
         y="149"
         width="26"
         height="32"
         class="terminal"
         rx="10"/>
   <text class="terminal" x="125" y="169">-</text>
   <rect x="239" y="19" width="26" height="32" rx="10"/>
   <rect x="237"
         y="17"
         width="26"
         height="32"
         class="terminal"
         rx="10"/>
   <text class="terminal" x="247" y="37">"</text>
   <path class="line"
         d="m17 33 h2 m0 0 h10 m26 0 h10 m40 0 h10 m60 0 h10 m0 0 h2 m-102 0 h20 m82 0 h20 m-122 0 q10 0 10 10 m102 0 q0 -10 10 -10 m-112 10 v24 m102 0 v-24 m-102 24 q0 10 10 10 m82 0 q10 0 10 -10 m-92 10 h10 m62 0 h10 m-92 -10 v20 m102 0 v-20 m-102 20 v24 m102 0 v-24 m-102 24 q0 10 10 10 m82 0 q10 0 10 -10 m-92 10 h10 m62 0 h10 m-92 -10 v20 m102 0 v-20 m-102 20 v24 m102 0 v-24 m-102 24 q0 10 10 10 m82 0 q10 0 10 -10 m-92 10 h10 m26 0 h10 m0 0 h36 m-122 -132 l20 0 m-1 0 q-9 0 -9 -10 l0 -12 q0 -10 10 -10 m122 32 l20 0 m-20 0 q10 0 10 -10 l0 -12 q0 -10 -10 -10 m-122 0 h10 m0 0 h112 m20 32 h10 m26 0 h10 m3 0 h-3"/>
   <polygon points="283 33 291 29 291 37"/>
   <polygon points="283 33 275 29 275 37"/>
</svg>
