<?xml version="1.0" encoding="UTF-8"?>
<svg xmlns="http://www.w3.org/2000/svg" width="799" height="343">
   <defs>
      <style type="text/css">
    @namespace "http://www.w3.org/2000/svg";
    .line                 {fill: none; stroke: #262626; stroke-width: 1;}
    .bold-line            {stroke: #0A0A0A; shape-rendering: crispEdges; stroke-width: 2;}
    .thin-line            {stroke: #0F0F0F; shape-rendering: crispEdges}
    .filled               {fill: #262626; stroke: none;}
    text.terminal         {font-family: Verdana, Sans-serif;
                            font-size: 12px;
                            fill: #0A0A0A;
                            font-weight: bold;
                          }
    text.nonterminal      {font-family: Verdana, Sans-serif;
                            font-size: 12px;
                            fill: #0D0D0D;
                            font-weight: normal;
                          }
    text.regexp           {font-family: Verdana, Sans-serif;
                            font-size: 12px;
                            fill: #0F0F0F;
                            font-weight: normal;
                          }
    rect, circle, polygon {fill: #262626; stroke: #262626;}
    rect.terminal         {fill: #FFFFFF; stroke: #262626; stroke-width: 1;}
    rect.nonterminal      {fill: #FFFFFF; stroke: #262626; stroke-width: 1;}
    rect.text             {fill: none; stroke: none;}
    polygon.regexp        {fill: #FFFFFF; stroke: #262626; stroke-width: 1;}
  </style>
   </defs>
   <polygon points="9 17 1 13 1 21"/>
   <polygon points="17 17 9 13 9 21"/>
   <rect x="31" y="3" width="146" height="32" rx="10"/>
   <rect x="29"
         y="1"
         width="146"
         height="32"
         class="terminal"
         rx="10"/>
   <text class="terminal" x="39" y="21">type = "Text.Date"</text>
   <rect x="257" y="35" width="128" height="32" rx="10"/>
   <rect x="255"
         y="33"
         width="128"
         height="32"
         class="terminal"
         rx="10"/>
   <text class="terminal" x="265" y="53">null-input-value</text>
   <rect x="257" y="79" width="64" height="32" rx="10"/>
   <rect x="255"
         y="77"
         width="64"
         height="32"
         class="terminal"
         rx="10"/>
   <text class="terminal" x="265" y="97">format</text>
   <rect x="257" y="123" width="94" height="32" rx="10"/>
   <rect x="255"
         y="121"
         width="94"
         height="32"
         class="terminal"
         rx="10"/>
   <text class="terminal" x="265" y="141">quote-char</text>
   <rect x="257" y="167" width="102" height="32" rx="10"/>
   <rect x="255"
         y="165"
         width="102"
         height="32"
         class="terminal"
         rx="10"/>
   <text class="terminal" x="265" y="185">escape-char</text>
   <rect x="257" y="211" width="92" height="32" rx="10"/>
   <rect x="255"
         y="209"
         width="92"
         height="32"
         class="terminal"
         rx="10"/>
   <text class="terminal" x="265" y="229">escape-set</text>
   <rect x="425" y="35" width="30" height="32" rx="10"/>
   <rect x="423"
         y="33"
         width="30"
         height="32"
         class="terminal"
         rx="10"/>
   <text class="terminal" x="433" y="53">=</text>
   <a xmlns:xlink="http://www.w3.org/1999/xlink"
      xlink:href="#string"
      xlink:title="string">
      <rect x="475" y="35" width="56" height="32"/>
      <rect x="473" y="33" width="56" height="32" class="nonterminal"/>
      <text class="nonterminal" x="483" y="53">string</text>
   </a>
   <rect x="237" y="277" width="152" height="32" rx="10"/>
   <rect x="235"
         y="275"
         width="152"
         height="32"
         class="terminal"
         rx="10"/>
   <text class="terminal" x="245" y="295">alternative-formats</text>
   <rect x="409" y="277" width="30" height="32" rx="10"/>
   <rect x="407"
         y="275"
         width="30"
         height="32"
         class="terminal"
         rx="10"/>
   <text class="terminal" x="417" y="295">=</text>
   <rect x="459" y="277" width="26" height="32" rx="10"/>
   <rect x="457"
         y="275"
         width="26"
         height="32"
         class="terminal"
         rx="10"/>
   <text class="terminal" x="467" y="295">[</text>
   <a xmlns:xlink="http://www.w3.org/1999/xlink"
      xlink:href="#string"
      xlink:title="string">
      <rect x="525" y="277" width="56" height="32"/>
      <rect x="523" y="275" width="56" height="32" class="nonterminal"/>
      <text class="nonterminal" x="533" y="295">string</text>
   </a>
   <rect x="621" y="309" width="24" height="32" rx="10"/>
   <rect x="619"
         y="307"
         width="24"
         height="32"
         class="terminal"
         rx="10"/>
   <text class="terminal" x="629" y="327">,</text>
   <rect x="705" y="277" width="26" height="32" rx="10"/>
   <rect x="703"
         y="275"
         width="26"
         height="32"
         class="terminal"
         rx="10"/>
   <text class="terminal" x="713" y="295">]</text>
   <path class="line"
         d="m17 17 h2 m0 0 h10 m146 0 h10 m40 0 h10 m0 0 h504 m-534 0 h20 m514 0 h20 m-554 0 q10 0 10 10 m534 0 q0 -10 10 -10 m-544 10 v12 m534 0 v-12 m-534 12 q0 10 10 10 m514 0 q10 0 10 -10 m-504 10 h10 m128 0 h10 m-168 0 h20 m148 0 h20 m-188 0 q10 0 10 10 m168 0 q0 -10 10 -10 m-178 10 v24 m168 0 v-24 m-168 24 q0 10 10 10 m148 0 q10 0 10 -10 m-158 10 h10 m64 0 h10 m0 0 h64 m-158 -10 v20 m168 0 v-20 m-168 20 v24 m168 0 v-24 m-168 24 q0 10 10 10 m148 0 q10 0 10 -10 m-158 10 h10 m94 0 h10 m0 0 h34 m-158 -10 v20 m168 0 v-20 m-168 20 v24 m168 0 v-24 m-168 24 q0 10 10 10 m148 0 q10 0 10 -10 m-158 10 h10 m102 0 h10 m0 0 h26 m-158 -10 v20 m168 0 v-20 m-168 20 v24 m168 0 v-24 m-168 24 q0 10 10 10 m148 0 q10 0 10 -10 m-158 10 h10 m92 0 h10 m0 0 h36 m20 -176 h10 m30 0 h10 m0 0 h10 m56 0 h10 m0 0 h200 m-524 -10 v20 m534 0 v-20 m-534 20 v222 m534 0 v-222 m-534 222 q0 10 10 10 m514 0 q10 0 10 -10 m-524 10 h10 m152 0 h10 m0 0 h10 m30 0 h10 m0 0 h10 m26 0 h10 m20 0 h10 m56 0 h10 m20 0 h10 m0 0 h34 m-64 0 h20 m44 0 h20 m-84 0 q10 0 10 10 m64 0 q0 -10 10 -10 m-74 10 v12 m64 0 v-12 m-64 12 q0 10 10 10 m44 0 q10 0 10 -10 m-54 10 h10 m24 0 h10 m-160 -32 l20 0 m-1 0 q-9 0 -9 -10 l0 -12 q0 -10 10 -10 m160 32 l20 0 m-20 0 q10 0 10 -10 l0 -12 q0 -10 -10 -10 m-160 0 h10 m0 0 h150 m20 32 h10 m26 0 h10 m-554 -274 l20 0 m-1 0 q-9 0 -9 -10 l0 4 q0 -10 10 -10 m554 16 l20 0 m-20 0 q10 0 10 -10 l0 4 q0 -10 -10 -10 m-554 0 h10 m0 0 h544 m23 16 h-3"/>
   <polygon points="789 17 797 13 797 21"/>
   <polygon points="789 17 781 13 781 21"/>
</svg>
