<?xml version="1.0" encoding="UTF-8"?>
<svg xmlns="http://www.w3.org/2000/svg" width="655" height="201">
   <defs>
      <style type="text/css">
    @namespace "http://www.w3.org/2000/svg";
    .line                 {fill: none; stroke: #262626; stroke-width: 1;}
    .bold-line            {stroke: #0A0A0A; shape-rendering: crispEdges; stroke-width: 2;}
    .thin-line            {stroke: #0F0F0F; shape-rendering: crispEdges}
    .filled               {fill: #262626; stroke: none;}
    text.terminal         {font-family: Verdana, Sans-serif;
                            font-size: 12px;
                            fill: #0A0A0A;
                            font-weight: bold;
                          }
    text.nonterminal      {font-family: Verdana, Sans-serif;
                            font-size: 12px;
                            fill: #0D0D0D;
                            font-weight: normal;
                          }
    text.regexp           {font-family: Verdana, Sans-serif;
                            font-size: 12px;
                            fill: #0F0F0F;
                            font-weight: normal;
                          }
    rect, circle, polygon {fill: #262626; stroke: #262626;}
    rect.terminal         {fill: #FFFFFF; stroke: #262626; stroke-width: 1;}
    rect.nonterminal      {fill: #FFFFFF; stroke: #262626; stroke-width: 1;}
    rect.text             {fill: none; stroke: none;}
    polygon.regexp        {fill: #FFFFFF; stroke: #262626; stroke-width: 1;}
  </style>
   </defs>
   <polygon points="9 17 1 13 1 21"/>
   <polygon points="17 17 9 13 9 21"/>
   <rect x="31" y="3" width="202" height="32" rx="10"/>
   <rect x="29"
         y="1"
         width="202"
         height="32"
         class="terminal"
         rx="10"/>
   <text class="terminal" x="39" y="21">type = "Binary.ByteString"</text>
   <rect x="313" y="35" width="128" height="32" rx="10"/>
   <rect x="311"
         y="33"
         width="128"
         height="32"
         class="terminal"
         rx="10"/>
   <text class="terminal" x="321" y="53">null-input-value</text>
   <rect x="313" y="79" width="94" height="32" rx="10"/>
   <rect x="311"
         y="77"
         width="94"
         height="32"
         class="terminal"
         rx="10"/>
   <text class="terminal" x="321" y="97">quote-char</text>
   <rect x="313" y="123" width="102" height="32" rx="10"/>
   <rect x="311"
         y="121"
         width="102"
         height="32"
         class="terminal"
         rx="10"/>
   <text class="terminal" x="321" y="141">escape-char</text>
   <rect x="313" y="167" width="92" height="32" rx="10"/>
   <rect x="311"
         y="165"
         width="92"
         height="32"
         class="terminal"
         rx="10"/>
   <text class="terminal" x="321" y="185">escape-set</text>
   <rect x="481" y="35" width="30" height="32" rx="10"/>
   <rect x="479"
         y="33"
         width="30"
         height="32"
         class="terminal"
         rx="10"/>
   <text class="terminal" x="489" y="53">=</text>
   <a xmlns:xlink="http://www.w3.org/1999/xlink"
      xlink:href="#string"
      xlink:title="string">
      <rect x="531" y="35" width="56" height="32"/>
      <rect x="529" y="33" width="56" height="32" class="nonterminal"/>
      <text class="nonterminal" x="539" y="53">string</text>
   </a>
   <path class="line"
         d="m17 17 h2 m0 0 h10 m202 0 h10 m40 0 h10 m0 0 h304 m-334 0 h20 m314 0 h20 m-354 0 q10 0 10 10 m334 0 q0 -10 10 -10 m-344 10 v12 m334 0 v-12 m-334 12 q0 10 10 10 m314 0 q10 0 10 -10 m-304 10 h10 m128 0 h10 m-168 0 h20 m148 0 h20 m-188 0 q10 0 10 10 m168 0 q0 -10 10 -10 m-178 10 v24 m168 0 v-24 m-168 24 q0 10 10 10 m148 0 q10 0 10 -10 m-158 10 h10 m94 0 h10 m0 0 h34 m-158 -10 v20 m168 0 v-20 m-168 20 v24 m168 0 v-24 m-168 24 q0 10 10 10 m148 0 q10 0 10 -10 m-158 10 h10 m102 0 h10 m0 0 h26 m-158 -10 v20 m168 0 v-20 m-168 20 v24 m168 0 v-24 m-168 24 q0 10 10 10 m148 0 q10 0 10 -10 m-158 10 h10 m92 0 h10 m0 0 h36 m20 -132 h10 m30 0 h10 m0 0 h10 m56 0 h10 m-354 -32 l20 0 m-1 0 q-9 0 -9 -10 l0 4 q0 -10 10 -10 m354 16 l20 0 m-20 0 q10 0 10 -10 l0 4 q0 -10 -10 -10 m-354 0 h10 m0 0 h344 m23 16 h-3"/>
   <polygon points="645 17 653 13 653 21"/>
   <polygon points="645 17 637 13 637 21"/>
</svg>
