<?xml version="1.0" encoding="UTF-8"?>
<svg xmlns="http://www.w3.org/2000/svg" width="577" height="421">
   <defs>
      <style type="text/css">
    @namespace "http://www.w3.org/2000/svg";
    .line                 {fill: none; stroke: #262626; stroke-width: 1;}
    .bold-line            {stroke: #0A0A0A; shape-rendering: crispEdges; stroke-width: 2;}
    .thin-line            {stroke: #0F0F0F; shape-rendering: crispEdges}
    .filled               {fill: #262626; stroke: none;}
    text.terminal         {font-family: Verdana, Sans-serif;
                            font-size: 12px;
                            fill: #0A0A0A;
                            font-weight: bold;
                          }
    text.nonterminal      {font-family: Verdana, Sans-serif;
                            font-size: 12px;
                            fill: #0D0D0D;
                            font-weight: normal;
                          }
    text.regexp           {font-family: Verdana, Sans-serif;
                            font-size: 12px;
                            fill: #0F0F0F;
                            font-weight: normal;
                          }
    rect, circle, polygon {fill: #262626; stroke: #262626;}
    rect.terminal         {fill: #FFFFFF; stroke: #262626; stroke-width: 1;}
    rect.nonterminal      {fill: #FFFFFF; stroke: #262626; stroke-width: 1;}
    rect.text             {fill: none; stroke: none;}
    polygon.regexp        {fill: #FFFFFF; stroke: #262626; stroke-width: 1;}
  </style>
   </defs>
   <polygon points="9 17 1 13 1 21"/>
   <polygon points="17 17 9 13 9 21"/>
   <rect x="31" y="3" width="28" height="32" rx="10"/>
   <rect x="29"
         y="1"
         width="28"
         height="32"
         class="terminal"
         rx="10"/>
   <text class="terminal" x="39" y="21">{</text>
   <rect x="139" y="35" width="56" height="32" rx="10"/>
   <rect x="137"
         y="33"
         width="56"
         height="32"
         class="terminal"
         rx="10"/>
   <text class="terminal" x="147" y="53">name</text>
   <rect x="139" y="79" width="100" height="32" rx="10"/>
   <rect x="137"
         y="77"
         width="100"
         height="32"
         class="terminal"
         rx="10"/>
   <text class="terminal" x="147" y="97">justification</text>
   <rect x="139" y="123" width="80" height="32" rx="10"/>
   <rect x="137"
         y="121"
         width="80"
         height="32"
         class="terminal"
         rx="10"/>
   <text class="terminal" x="147" y="141">pad-char</text>
   <rect x="139" y="167" width="94" height="32" rx="10"/>
   <rect x="137"
         y="165"
         width="94"
         height="32"
         class="terminal"
         rx="10"/>
   <text class="terminal" x="147" y="185">strip-chars</text>
   <rect x="139" y="211" width="138" height="32" rx="10"/>
   <rect x="137"
         y="209"
         width="138"
         height="32"
         class="terminal"
         rx="10"/>
   <text class="terminal" x="147" y="229">null-output-value</text>
   <rect x="317" y="35" width="30" height="32" rx="10"/>
   <rect x="315"
         y="33"
         width="30"
         height="32"
         class="terminal"
         rx="10"/>
   <text class="terminal" x="325" y="53">=</text>
   <a xmlns:xlink="http://www.w3.org/1999/xlink"
      xlink:href="#string"
      xlink:title="string">
      <rect x="367" y="35" width="56" height="32"/>
      <rect x="365" y="33" width="56" height="32" class="nonterminal"/>
      <text class="nonterminal" x="375" y="53">string</text>
   </a>
   <rect x="119" y="255" width="152" height="32" rx="10"/>
   <rect x="117"
         y="253"
         width="152"
         height="32"
         class="terminal"
         rx="10"/>
   <text class="terminal" x="127" y="273">type = "Calculated"</text>
   <rect x="119" y="299" width="56" height="32" rx="10"/>
   <rect x="117"
         y="297"
         width="56"
         height="32"
         class="terminal"
         rx="10"/>
   <text class="terminal" x="127" y="317">value</text>
   <rect x="195" y="299" width="30" height="32" rx="10"/>
   <rect x="193"
         y="297"
         width="30"
         height="32"
         class="terminal"
         rx="10"/>
   <text class="terminal" x="203" y="317">=</text>
   <a xmlns:xlink="http://www.w3.org/1999/xlink"
      xlink:href="#Value"
      xlink:title="Value">
      <rect x="245" y="299" width="56" height="32"/>
      <rect x="243" y="297" width="56" height="32" class="nonterminal"/>
      <text class="nonterminal" x="253" y="317">Value</text>
   </a>
   <rect x="139" y="343" width="158" height="32" rx="10"/>
   <rect x="137"
         y="341"
         width="158"
         height="32"
         class="terminal"
         rx="10"/>
   <text class="terminal" x="147" y="361">input-exists-formula</text>
   <rect x="139" y="387" width="162" height="32" rx="10"/>
   <rect x="137"
         y="385"
         width="162"
         height="32"
         class="terminal"
         rx="10"/>
   <text class="terminal" x="147" y="405">input-length-formula</text>
   <rect x="341" y="343" width="30" height="32" rx="10"/>
   <rect x="339"
         y="341"
         width="30"
         height="32"
         class="terminal"
         rx="10"/>
   <text class="terminal" x="349" y="361">=</text>
   <a xmlns:xlink="http://www.w3.org/1999/xlink"
      xlink:href="#Formula"
      xlink:title="Formula">
      <rect x="391" y="343" width="70" height="32"/>
      <rect x="389" y="341" width="70" height="32" class="nonterminal"/>
      <text class="nonterminal" x="399" y="361">Formula</text>
   </a>
   <rect x="521" y="3" width="28" height="32" rx="10"/>
   <rect x="519"
         y="1"
         width="28"
         height="32"
         class="terminal"
         rx="10"/>
   <text class="terminal" x="529" y="21">}</text>
   <path class="line"
         d="m17 17 h2 m0 0 h10 m28 0 h10 m40 0 h10 m0 0 h352 m-382 0 h20 m362 0 h20 m-402 0 q10 0 10 10 m382 0 q0 -10 10 -10 m-392 10 v12 m382 0 v-12 m-382 12 q0 10 10 10 m362 0 q10 0 10 -10 m-352 10 h10 m56 0 h10 m0 0 h82 m-178 0 h20 m158 0 h20 m-198 0 q10 0 10 10 m178 0 q0 -10 10 -10 m-188 10 v24 m178 0 v-24 m-178 24 q0 10 10 10 m158 0 q10 0 10 -10 m-168 10 h10 m100 0 h10 m0 0 h38 m-168 -10 v20 m178 0 v-20 m-178 20 v24 m178 0 v-24 m-178 24 q0 10 10 10 m158 0 q10 0 10 -10 m-168 10 h10 m80 0 h10 m0 0 h58 m-168 -10 v20 m178 0 v-20 m-178 20 v24 m178 0 v-24 m-178 24 q0 10 10 10 m158 0 q10 0 10 -10 m-168 10 h10 m94 0 h10 m0 0 h44 m-168 -10 v20 m178 0 v-20 m-178 20 v24 m178 0 v-24 m-178 24 q0 10 10 10 m158 0 q10 0 10 -10 m-168 10 h10 m138 0 h10 m20 -176 h10 m30 0 h10 m0 0 h10 m56 0 h10 m0 0 h38 m-372 -10 v20 m382 0 v-20 m-382 20 v200 m382 0 v-200 m-382 200 q0 10 10 10 m362 0 q10 0 10 -10 m-372 10 h10 m152 0 h10 m0 0 h190 m-372 -10 v20 m382 0 v-20 m-382 20 v24 m382 0 v-24 m-382 24 q0 10 10 10 m362 0 q10 0 10 -10 m-372 10 h10 m56 0 h10 m0 0 h10 m30 0 h10 m0 0 h10 m56 0 h10 m0 0 h160 m-372 -10 v20 m382 0 v-20 m-382 20 v24 m382 0 v-24 m-382 24 q0 10 10 10 m362 0 q10 0 10 -10 m-352 10 h10 m158 0 h10 m0 0 h4 m-202 0 h20 m182 0 h20 m-222 0 q10 0 10 10 m202 0 q0 -10 10 -10 m-212 10 v24 m202 0 v-24 m-202 24 q0 10 10 10 m182 0 q10 0 10 -10 m-192 10 h10 m162 0 h10 m20 -44 h10 m30 0 h10 m0 0 h10 m70 0 h10 m-402 -340 l20 0 m-1 0 q-9 0 -9 -10 l0 4 q0 -10 10 -10 m402 16 l20 0 m-20 0 q10 0 10 -10 l0 4 q0 -10 -10 -10 m-402 0 h10 m0 0 h392 m20 16 h10 m28 0 h10 m3 0 h-3"/>
   <polygon points="567 17 575 13 575 21"/>
   <polygon points="567 17 559 13 559 21"/>
</svg>
