<?xml version="1.0" encoding="UTF-8"?>
<svg xmlns="http://www.w3.org/2000/svg" width="587" height="255">
   <defs>
      <style type="text/css">
    @namespace "http://www.w3.org/2000/svg";
    .line                 {fill: none; stroke: #262626; stroke-width: 1;}
    .bold-line            {stroke: #0A0A0A; shape-rendering: crispEdges; stroke-width: 2;}
    .thin-line            {stroke: #0F0F0F; shape-rendering: crispEdges}
    .filled               {fill: #262626; stroke: none;}
    text.terminal         {font-family: Verdana, Sans-serif;
                            font-size: 12px;
                            fill: #0A0A0A;
                            font-weight: bold;
                          }
    text.nonterminal      {font-family: Verdana, Sans-serif;
                            font-size: 12px;
                            fill: #0D0D0D;
                            font-weight: normal;
                          }
    text.regexp           {font-family: Verdana, Sans-serif;
                            font-size: 12px;
                            fill: #0F0F0F;
                            font-weight: normal;
                          }
    rect, circle, polygon {fill: #262626; stroke: #262626;}
    rect.terminal         {fill: #FFFFFF; stroke: #262626; stroke-width: 1;}
    rect.nonterminal      {fill: #FFFFFF; stroke: #262626; stroke-width: 1;}
    rect.text             {fill: none; stroke: none;}
    polygon.regexp        {fill: #FFFFFF; stroke: #262626; stroke-width: 1;}
  </style>
   </defs>
   <polygon points="9 17 1 13 1 21"/>
   <polygon points="17 17 9 13 9 21"/>
   <rect x="31" y="3" width="28" height="32" rx="10"/>
   <rect x="29"
         y="1"
         width="28"
         height="32"
         class="terminal"
         rx="10"/>
   <text class="terminal" x="39" y="21">{</text>
   <rect x="119" y="35" width="56" height="32" rx="10"/>
   <rect x="117"
         y="33"
         width="56"
         height="32"
         class="terminal"
         rx="10"/>
   <text class="terminal" x="127" y="53">name</text>
   <rect x="195" y="35" width="30" height="32" rx="10"/>
   <rect x="193"
         y="33"
         width="30"
         height="32"
         class="terminal"
         rx="10"/>
   <text class="terminal" x="203" y="53">=</text>
   <a xmlns:xlink="http://www.w3.org/1999/xlink"
      xlink:href="#string"
      xlink:title="string">
      <rect x="245" y="35" width="56" height="32"/>
      <rect x="243" y="33" width="56" height="32" class="nonterminal"/>
      <text class="nonterminal" x="253" y="53">string</text>
   </a>
   <rect x="119" y="79" width="126" height="32" rx="10"/>
   <rect x="117"
         y="77"
         width="126"
         height="32"
         class="terminal"
         rx="10"/>
   <text class="terminal" x="127" y="97">type = "Choice"</text>
   <rect x="119" y="123" width="78" height="32" rx="10"/>
   <rect x="117"
         y="121"
         width="78"
         height="32"
         class="terminal"
         rx="10"/>
   <text class="terminal" x="127" y="141">mapping</text>
   <rect x="217" y="123" width="30" height="32" rx="10"/>
   <rect x="215"
         y="121"
         width="30"
         height="32"
         class="terminal"
         rx="10"/>
   <text class="terminal" x="225" y="141">=</text>
   <a xmlns:xlink="http://www.w3.org/1999/xlink"
      xlink:href="#MessageMapping"
      xlink:title="MessageMapping">
      <rect x="267" y="123" width="130" height="32"/>
      <rect x="265" y="121" width="130" height="32" class="nonterminal"/>
      <text class="nonterminal" x="275" y="141">MessageMapping</text>
   </a>
   <rect x="119" y="189" width="26" height="32" rx="10"/>
   <rect x="117"
         y="187"
         width="26"
         height="32"
         class="terminal"
         rx="10"/>
   <text class="terminal" x="127" y="207">[</text>
   <a xmlns:xlink="http://www.w3.org/1999/xlink"
      xlink:href="#ElementReference"
      xlink:title="ElementReference">
      <rect x="185" y="189" width="136" height="32"/>
      <rect x="183" y="187" width="136" height="32" class="nonterminal"/>
      <text class="nonterminal" x="193" y="207">ElementReference</text>
   </a>
   <rect x="361" y="221" width="24" height="32" rx="10"/>
   <rect x="359"
         y="219"
         width="24"
         height="32"
         class="terminal"
         rx="10"/>
   <text class="terminal" x="369" y="239">,</text>
   <rect x="445" y="189" width="26" height="32" rx="10"/>
   <rect x="443"
         y="187"
         width="26"
         height="32"
         class="terminal"
         rx="10"/>
   <text class="terminal" x="453" y="207">]</text>
   <rect x="531" y="3" width="28" height="32" rx="10"/>
   <rect x="529"
         y="1"
         width="28"
         height="32"
         class="terminal"
         rx="10"/>
   <text class="terminal" x="539" y="21">}</text>
   <path class="line"
         d="m17 17 h2 m0 0 h10 m28 0 h10 m40 0 h10 m0 0 h362 m-392 0 h20 m372 0 h20 m-412 0 q10 0 10 10 m392 0 q0 -10 10 -10 m-402 10 v12 m392 0 v-12 m-392 12 q0 10 10 10 m372 0 q10 0 10 -10 m-382 10 h10 m56 0 h10 m0 0 h10 m30 0 h10 m0 0 h10 m56 0 h10 m0 0 h170 m-382 -10 v20 m392 0 v-20 m-392 20 v24 m392 0 v-24 m-392 24 q0 10 10 10 m372 0 q10 0 10 -10 m-382 10 h10 m126 0 h10 m0 0 h226 m-382 -10 v20 m392 0 v-20 m-392 20 v24 m392 0 v-24 m-392 24 q0 10 10 10 m372 0 q10 0 10 -10 m-382 10 h10 m78 0 h10 m0 0 h10 m30 0 h10 m0 0 h10 m130 0 h10 m0 0 h74 m-382 -10 v20 m392 0 v-20 m-392 20 v46 m392 0 v-46 m-392 46 q0 10 10 10 m372 0 q10 0 10 -10 m-382 10 h10 m26 0 h10 m20 0 h10 m136 0 h10 m20 0 h10 m0 0 h34 m-64 0 h20 m44 0 h20 m-84 0 q10 0 10 10 m64 0 q0 -10 10 -10 m-74 10 v12 m64 0 v-12 m-64 12 q0 10 10 10 m44 0 q10 0 10 -10 m-54 10 h10 m24 0 h10 m-240 -32 l20 0 m-1 0 q-9 0 -9 -10 l0 -12 q0 -10 10 -10 m240 32 l20 0 m-20 0 q10 0 10 -10 l0 -12 q0 -10 -10 -10 m-240 0 h10 m0 0 h230 m20 32 h10 m26 0 h10 m-412 -186 l20 0 m-1 0 q-9 0 -9 -10 l0 4 q0 -10 10 -10 m412 16 l20 0 m-20 0 q10 0 10 -10 l0 4 q0 -10 -10 -10 m-412 0 h10 m0 0 h402 m20 16 h10 m28 0 h10 m3 0 h-3"/>
   <polygon points="577 17 585 13 585 21"/>
   <polygon points="577 17 569 13 569 21"/>
</svg>
