<?xml version="1.0" encoding="UTF-8"?>
<svg xmlns="http://www.w3.org/2000/svg" width="555" height="245">
   <defs>
      <style type="text/css">
    @namespace "http://www.w3.org/2000/svg";
    .line                 {fill: none; stroke: #262626; stroke-width: 1;}
    .bold-line            {stroke: #0A0A0A; shape-rendering: crispEdges; stroke-width: 2;}
    .thin-line            {stroke: #0F0F0F; shape-rendering: crispEdges}
    .filled               {fill: #262626; stroke: none;}
    text.terminal         {font-family: Verdana, Sans-serif;
                            font-size: 12px;
                            fill: #0A0A0A;
                            font-weight: bold;
                          }
    text.nonterminal      {font-family: Verdana, Sans-serif;
                            font-size: 12px;
                            fill: #0D0D0D;
                            font-weight: normal;
                          }
    text.regexp           {font-family: Verdana, Sans-serif;
                            font-size: 12px;
                            fill: #0F0F0F;
                            font-weight: normal;
                          }
    rect, circle, polygon {fill: #262626; stroke: #262626;}
    rect.terminal         {fill: #FFFFFF; stroke: #262626; stroke-width: 1;}
    rect.nonterminal      {fill: #FFFFFF; stroke: #262626; stroke-width: 1;}
    rect.text             {fill: none; stroke: none;}
    polygon.regexp        {fill: #FFFFFF; stroke: #262626; stroke-width: 1;}
  </style>
   </defs>
   <polygon points="9 17 1 13 1 21"/>
   <polygon points="17 17 9 13 9 21"/>
   <rect x="31" y="3" width="28" height="32" rx="10"/>
   <rect x="29"
         y="1"
         width="28"
         height="32"
         class="terminal"
         rx="10"/>
   <text class="terminal" x="39" y="21">{</text>
   <rect x="139" y="35" width="56" height="32" rx="10"/>
   <rect x="137"
         y="33"
         width="56"
         height="32"
         class="terminal"
         rx="10"/>
   <text class="terminal" x="147" y="53">name</text>
   <rect x="139" y="79" width="154" height="32" rx="10"/>
   <rect x="137"
         y="77"
         width="154"
         height="32"
         class="terminal"
         rx="10"/>
   <text class="terminal" x="147" y="97">referenced-element</text>
   <rect x="333" y="35" width="30" height="32" rx="10"/>
   <rect x="331"
         y="33"
         width="30"
         height="32"
         class="terminal"
         rx="10"/>
   <text class="terminal" x="341" y="53">=</text>
   <a xmlns:xlink="http://www.w3.org/1999/xlink"
      xlink:href="#string"
      xlink:title="string">
      <rect x="383" y="35" width="56" height="32"/>
      <rect x="381" y="33" width="56" height="32" class="nonterminal"/>
      <text class="nonterminal" x="391" y="53">string</text>
   </a>
   <rect x="119" y="123" width="78" height="32" rx="10"/>
   <rect x="117"
         y="121"
         width="78"
         height="32"
         class="terminal"
         rx="10"/>
   <text class="terminal" x="127" y="141">mapping</text>
   <rect x="217" y="123" width="30" height="32" rx="10"/>
   <rect x="215"
         y="121"
         width="30"
         height="32"
         class="terminal"
         rx="10"/>
   <text class="terminal" x="225" y="141">=</text>
   <a xmlns:xlink="http://www.w3.org/1999/xlink"
      xlink:href="#MessageMapping"
      xlink:title="MessageMapping">
      <rect x="267" y="123" width="130" height="32"/>
      <rect x="265" y="121" width="130" height="32" class="nonterminal"/>
      <text class="nonterminal" x="275" y="141">MessageMapping</text>
   </a>
   <rect x="139" y="167" width="94" height="32" rx="10"/>
   <rect x="137"
         y="165"
         width="94"
         height="32"
         class="terminal"
         rx="10"/>
   <text class="terminal" x="147" y="185">min-occurs</text>
   <rect x="139" y="211" width="98" height="32" rx="10"/>
   <rect x="137"
         y="209"
         width="98"
         height="32"
         class="terminal"
         rx="10"/>
   <text class="terminal" x="147" y="229">max-occurs</text>
   <rect x="277" y="167" width="30" height="32" rx="10"/>
   <rect x="275"
         y="165"
         width="30"
         height="32"
         class="terminal"
         rx="10"/>
   <text class="terminal" x="285" y="185">=</text>
   <a xmlns:xlink="http://www.w3.org/1999/xlink"
      xlink:href="#integer"
      xlink:title="integer">
      <rect x="327" y="167" width="64" height="32"/>
      <rect x="325" y="165" width="64" height="32" class="nonterminal"/>
      <text class="nonterminal" x="335" y="185">integer</text>
   </a>
   <rect x="499" y="3" width="28" height="32" rx="10"/>
   <rect x="497"
         y="1"
         width="28"
         height="32"
         class="terminal"
         rx="10"/>
   <text class="terminal" x="507" y="21">}</text>
   <path class="line"
         d="m17 17 h2 m0 0 h10 m28 0 h10 m40 0 h10 m0 0 h330 m-360 0 h20 m340 0 h20 m-380 0 q10 0 10 10 m360 0 q0 -10 10 -10 m-370 10 v12 m360 0 v-12 m-360 12 q0 10 10 10 m340 0 q10 0 10 -10 m-330 10 h10 m56 0 h10 m0 0 h98 m-194 0 h20 m174 0 h20 m-214 0 q10 0 10 10 m194 0 q0 -10 10 -10 m-204 10 v24 m194 0 v-24 m-194 24 q0 10 10 10 m174 0 q10 0 10 -10 m-184 10 h10 m154 0 h10 m20 -44 h10 m30 0 h10 m0 0 h10 m56 0 h10 m-350 -10 v20 m360 0 v-20 m-360 20 v68 m360 0 v-68 m-360 68 q0 10 10 10 m340 0 q10 0 10 -10 m-350 10 h10 m78 0 h10 m0 0 h10 m30 0 h10 m0 0 h10 m130 0 h10 m0 0 h42 m-350 -10 v20 m360 0 v-20 m-360 20 v24 m360 0 v-24 m-360 24 q0 10 10 10 m340 0 q10 0 10 -10 m-330 10 h10 m94 0 h10 m0 0 h4 m-138 0 h20 m118 0 h20 m-158 0 q10 0 10 10 m138 0 q0 -10 10 -10 m-148 10 v24 m138 0 v-24 m-138 24 q0 10 10 10 m118 0 q10 0 10 -10 m-128 10 h10 m98 0 h10 m20 -44 h10 m30 0 h10 m0 0 h10 m64 0 h10 m0 0 h48 m-380 -164 l20 0 m-1 0 q-9 0 -9 -10 l0 4 q0 -10 10 -10 m380 16 l20 0 m-20 0 q10 0 10 -10 l0 4 q0 -10 -10 -10 m-380 0 h10 m0 0 h370 m20 16 h10 m28 0 h10 m3 0 h-3"/>
   <polygon points="545 17 553 13 553 21"/>
   <polygon points="545 17 537 13 537 21"/>
</svg>
