<?xml version="1.0" encoding="UTF-8"?>
<svg xmlns="http://www.w3.org/2000/svg" width="823" height="459">
   <defs>
      <style type="text/css">
    @namespace "http://www.w3.org/2000/svg";
    .line                 {fill: none; stroke: #262626; stroke-width: 1;}
    .bold-line            {stroke: #0A0A0A; shape-rendering: crispEdges; stroke-width: 2;}
    .thin-line            {stroke: #0F0F0F; shape-rendering: crispEdges}
    .filled               {fill: #262626; stroke: none;}
    text.terminal         {font-family: Verdana, Sans-serif;
                            font-size: 12px;
                            fill: #0A0A0A;
                            font-weight: bold;
                          }
    text.nonterminal      {font-family: Verdana, Sans-serif;
                            font-size: 12px;
                            fill: #0D0D0D;
                            font-weight: normal;
                          }
    text.regexp           {font-family: Verdana, Sans-serif;
                            font-size: 12px;
                            fill: #0F0F0F;
                            font-weight: normal;
                          }
    rect, circle, polygon {fill: #262626; stroke: #262626;}
    rect.terminal         {fill: #FFFFFF; stroke: #262626; stroke-width: 1;}
    rect.nonterminal      {fill: #FFFFFF; stroke: #262626; stroke-width: 1;}
    rect.text             {fill: none; stroke: none;}
    polygon.regexp        {fill: #FFFFFF; stroke: #262626; stroke-width: 1;}
  </style>
   </defs>
   <polygon points="9 33 1 29 1 37"/>
   <polygon points="17 33 9 29 9 37"/>
   <rect x="31" y="19" width="64" height="32" rx="10"/>
   <rect x="29"
         y="17"
         width="64"
         height="32"
         class="terminal"
         rx="10"/>
   <text class="terminal" x="39" y="37">format</text>
   <rect x="115" y="19" width="28" height="32" rx="10"/>
   <rect x="113"
         y="17"
         width="28"
         height="32"
         class="terminal"
         rx="10"/>
   <text class="terminal" x="123" y="37">{</text>
   <rect x="223" y="51" width="56" height="32" rx="10"/>
   <rect x="221"
         y="49"
         width="56"
         height="32"
         class="terminal"
         rx="10"/>
   <text class="terminal" x="231" y="69">name</text>
   <rect x="223" y="95" width="94" height="32" rx="10"/>
   <rect x="221"
         y="93"
         width="94"
         height="32"
         class="terminal"
         rx="10"/>
   <text class="terminal" x="231" y="113">description</text>
   <rect x="223" y="139" width="112" height="32" rx="10"/>
   <rect x="221"
         y="137"
         width="112"
         height="32"
         class="terminal"
         rx="10"/>
   <text class="terminal" x="231" y="157">start-element</text>
   <rect x="223" y="183" width="142" height="32" rx="10"/>
   <rect x="221"
         y="181"
         width="142"
         height="32"
         class="terminal"
         rx="10"/>
   <text class="terminal" x="231" y="201">target-namespace</text>
   <rect x="405" y="19" width="30" height="32" rx="10"/>
   <rect x="403"
         y="17"
         width="30"
         height="32"
         class="terminal"
         rx="10"/>
   <text class="terminal" x="413" y="37">=</text>
   <a xmlns:xlink="http://www.w3.org/1999/xlink"
      xlink:href="#string"
      xlink:title="string">
      <rect x="455" y="19" width="56" height="32"/>
      <rect x="453" y="17" width="56" height="32" class="nonterminal"/>
      <text class="nonterminal" x="463" y="37">string</text>
   </a>
   <rect x="203" y="249" width="82" height="32" rx="10"/>
   <rect x="201"
         y="247"
         width="82"
         height="32"
         class="terminal"
         rx="10"/>
   <text class="terminal" x="211" y="267">elements</text>
   <rect x="305" y="249" width="30" height="32" rx="10"/>
   <rect x="303"
         y="247"
         width="30"
         height="32"
         class="terminal"
         rx="10"/>
   <text class="terminal" x="313" y="267">=</text>
   <rect x="355" y="249" width="26" height="32" rx="10"/>
   <rect x="353"
         y="247"
         width="26"
         height="32"
         class="terminal"
         rx="10"/>
   <text class="terminal" x="363" y="267">[</text>
   <a xmlns:xlink="http://www.w3.org/1999/xlink"
      xlink:href="#Choice"
      xlink:title="Choice">
      <rect x="441" y="249" width="62" height="32"/>
      <rect x="439" y="247" width="62" height="32" class="nonterminal"/>
      <text class="nonterminal" x="449" y="267">Choice</text>
   </a>
   <a xmlns:xlink="http://www.w3.org/1999/xlink"
      xlink:href="#ListTerminal"
      xlink:title="ListTerminal">
      <rect x="441" y="293" width="96" height="32"/>
      <rect x="439" y="291" width="96" height="32" class="nonterminal"/>
      <text class="nonterminal" x="449" y="311">ListTerminal</text>
   </a>
   <a xmlns:xlink="http://www.w3.org/1999/xlink"
      xlink:href="#MultiPart"
      xlink:title="MultiPart">
      <rect x="441" y="337" width="76" height="32"/>
      <rect x="439" y="335" width="76" height="32" class="nonterminal"/>
      <text class="nonterminal" x="449" y="355">MultiPart</text>
   </a>
   <a xmlns:xlink="http://www.w3.org/1999/xlink"
      xlink:href="#Separated"
      xlink:title="Separated">
      <rect x="441" y="381" width="86" height="32"/>
      <rect x="439" y="379" width="86" height="32" class="nonterminal"/>
      <text class="nonterminal" x="449" y="399">Separated</text>
   </a>
   <a xmlns:xlink="http://www.w3.org/1999/xlink"
      xlink:href="#Sequence"
      xlink:title="Sequence">
      <rect x="441" y="425" width="82" height="32"/>
      <rect x="439" y="423" width="82" height="32" class="nonterminal"/>
      <text class="nonterminal" x="449" y="443">Sequence</text>
   </a>
   <rect x="597" y="281" width="24" height="32" rx="10"/>
   <rect x="595"
         y="279"
         width="24"
         height="32"
         class="terminal"
         rx="10"/>
   <text class="terminal" x="605" y="299">,</text>
   <rect x="681" y="249" width="26" height="32" rx="10"/>
   <rect x="679"
         y="247"
         width="26"
         height="32"
         class="terminal"
         rx="10"/>
   <text class="terminal" x="689" y="267">]</text>
   <rect x="767" y="19" width="28" height="32" rx="10"/>
   <rect x="765"
         y="17"
         width="28"
         height="32"
         class="terminal"
         rx="10"/>
   <text class="terminal" x="775" y="37">}</text>
   <path class="line"
         d="m17 33 h2 m0 0 h10 m64 0 h10 m0 0 h10 m28 0 h10 m60 0 h10 m0 0 h152 m-182 0 h20 m162 0 h20 m-202 0 q10 0 10 10 m182 0 q0 -10 10 -10 m-192 10 v12 m182 0 v-12 m-182 12 q0 10 10 10 m162 0 q10 0 10 -10 m-172 10 h10 m56 0 h10 m0 0 h86 m-172 -10 v20 m182 0 v-20 m-182 20 v24 m182 0 v-24 m-182 24 q0 10 10 10 m162 0 q10 0 10 -10 m-172 10 h10 m94 0 h10 m0 0 h48 m-172 -10 v20 m182 0 v-20 m-182 20 v24 m182 0 v-24 m-182 24 q0 10 10 10 m162 0 q10 0 10 -10 m-172 10 h10 m112 0 h10 m0 0 h30 m-172 -10 v20 m182 0 v-20 m-182 20 v24 m182 0 v-24 m-182 24 q0 10 10 10 m162 0 q10 0 10 -10 m-172 10 h10 m142 0 h10 m20 -164 h10 m30 0 h10 m0 0 h10 m56 0 h10 m0 0 h196 m-544 0 h20 m524 0 h20 m-564 0 q10 0 10 10 m544 0 q0 -10 10 -10 m-554 10 v210 m544 0 v-210 m-544 210 q0 10 10 10 m524 0 q10 0 10 -10 m-534 10 h10 m82 0 h10 m0 0 h10 m30 0 h10 m0 0 h10 m26 0 h10 m40 0 h10 m62 0 h10 m0 0 h34 m-136 0 h20 m116 0 h20 m-156 0 q10 0 10 10 m136 0 q0 -10 10 -10 m-146 10 v24 m136 0 v-24 m-136 24 q0 10 10 10 m116 0 q10 0 10 -10 m-126 10 h10 m96 0 h10 m-126 -10 v20 m136 0 v-20 m-136 20 v24 m136 0 v-24 m-136 24 q0 10 10 10 m116 0 q10 0 10 -10 m-126 10 h10 m76 0 h10 m0 0 h20 m-126 -10 v20 m136 0 v-20 m-136 20 v24 m136 0 v-24 m-136 24 q0 10 10 10 m116 0 q10 0 10 -10 m-126 10 h10 m86 0 h10 m0 0 h10 m-126 -10 v20 m136 0 v-20 m-136 20 v24 m136 0 v-24 m-136 24 q0 10 10 10 m116 0 q10 0 10 -10 m-126 10 h10 m82 0 h10 m0 0 h14 m40 -176 h10 m0 0 h34 m-64 0 h20 m44 0 h20 m-84 0 q10 0 10 10 m64 0 q0 -10 10 -10 m-74 10 v12 m64 0 v-12 m-64 12 q0 10 10 10 m44 0 q10 0 10 -10 m-54 10 h10 m24 0 h10 m-240 -32 l20 0 m-1 0 q-9 0 -9 -10 l0 -12 q0 -10 10 -10 m240 32 l20 0 m-20 0 q10 0 10 -10 l0 -12 q0 -10 -10 -10 m-240 0 h10 m0 0 h230 m20 32 h10 m26 0 h10 m-564 -230 l20 0 m-1 0 q-9 0 -9 -10 l0 -12 q0 -10 10 -10 m564 32 l20 0 m-20 0 q10 0 10 -10 l0 -12 q0 -10 -10 -10 m-564 0 h10 m0 0 h554 m20 32 h10 m28 0 h10 m3 0 h-3"/>
   <polygon points="813 33 821 29 821 37"/>
   <polygon points="813 33 805 29 805 37"/>
</svg>
