<?xml version="1.0" encoding="UTF-8"?>
<svg xmlns="http://www.w3.org/2000/svg" width="479" height="113">
   <defs>
      <style type="text/css">
    @namespace "http://www.w3.org/2000/svg";
    .line                 {fill: none; stroke: #262626; stroke-width: 1;}
    .bold-line            {stroke: #0A0A0A; shape-rendering: crispEdges; stroke-width: 2;}
    .thin-line            {stroke: #0F0F0F; shape-rendering: crispEdges}
    .filled               {fill: #262626; stroke: none;}
    text.terminal         {font-family: Verdana, Sans-serif;
                            font-size: 12px;
                            fill: #0A0A0A;
                            font-weight: bold;
                          }
    text.nonterminal      {font-family: Verdana, Sans-serif;
                            font-size: 12px;
                            fill: #0D0D0D;
                            font-weight: normal;
                          }
    text.regexp           {font-family: Verdana, Sans-serif;
                            font-size: 12px;
                            fill: #0F0F0F;
                            font-weight: normal;
                          }
    rect, circle, polygon {fill: #262626; stroke: #262626;}
    rect.terminal         {fill: #FFFFFF; stroke: #262626; stroke-width: 1;}
    rect.nonterminal      {fill: #FFFFFF; stroke: #262626; stroke-width: 1;}
    rect.text             {fill: none; stroke: none;}
    polygon.regexp        {fill: #FFFFFF; stroke: #262626; stroke-width: 1;}
  </style>
   </defs>
   <polygon points="9 17 1 13 1 21"/>
   <polygon points="17 17 9 13 9 21"/>
   <rect x="31" y="3" width="28" height="32" rx="10"/>
   <rect x="29"
         y="1"
         width="28"
         height="32"
         class="terminal"
         rx="10"/>
   <text class="terminal" x="39" y="21">{</text>
   <rect x="139" y="35" width="78" height="32" rx="10"/>
   <rect x="137"
         y="33"
         width="78"
         height="32"
         class="terminal"
         rx="10"/>
   <text class="terminal" x="147" y="53">message</text>
   <rect x="139" y="79" width="74" height="32" rx="10"/>
   <rect x="137"
         y="77"
         width="74"
         height="32"
         class="terminal"
         rx="10"/>
   <text class="terminal" x="147" y="97">element</text>
   <rect x="257" y="35" width="30" height="32" rx="10"/>
   <rect x="255"
         y="33"
         width="30"
         height="32"
         class="terminal"
         rx="10"/>
   <text class="terminal" x="265" y="53">=</text>
   <a xmlns:xlink="http://www.w3.org/1999/xlink"
      xlink:href="#string"
      xlink:title="string">
      <rect x="307" y="35" width="56" height="32"/>
      <rect x="305" y="33" width="56" height="32" class="nonterminal"/>
      <text class="nonterminal" x="315" y="53">string</text>
   </a>
   <rect x="423" y="3" width="28" height="32" rx="10"/>
   <rect x="421"
         y="1"
         width="28"
         height="32"
         class="terminal"
         rx="10"/>
   <text class="terminal" x="431" y="21">}</text>
   <path class="line"
         d="m17 17 h2 m0 0 h10 m28 0 h10 m40 0 h10 m0 0 h254 m-284 0 h20 m264 0 h20 m-304 0 q10 0 10 10 m284 0 q0 -10 10 -10 m-294 10 v12 m284 0 v-12 m-284 12 q0 10 10 10 m264 0 q10 0 10 -10 m-254 10 h10 m78 0 h10 m-118 0 h20 m98 0 h20 m-138 0 q10 0 10 10 m118 0 q0 -10 10 -10 m-128 10 v24 m118 0 v-24 m-118 24 q0 10 10 10 m98 0 q10 0 10 -10 m-108 10 h10 m74 0 h10 m0 0 h4 m20 -44 h10 m30 0 h10 m0 0 h10 m56 0 h10 m-304 -32 l20 0 m-1 0 q-9 0 -9 -10 l0 4 q0 -10 10 -10 m304 16 l20 0 m-20 0 q10 0 10 -10 l0 4 q0 -10 -10 -10 m-304 0 h10 m0 0 h294 m20 16 h10 m28 0 h10 m3 0 h-3"/>
   <polygon points="469 17 477 13 477 21"/>
   <polygon points="469 17 461 13 461 21"/>
</svg>
