<?xml version="1.0" encoding="UTF-8"?>
<svg xmlns="http://www.w3.org/2000/svg" width="589" height="245">
   <defs>
      <style type="text/css">
    @namespace "http://www.w3.org/2000/svg";
    .line                 {fill: none; stroke: #262626; stroke-width: 1;}
    .bold-line            {stroke: #0A0A0A; shape-rendering: crispEdges; stroke-width: 2;}
    .thin-line            {stroke: #0F0F0F; shape-rendering: crispEdges}
    .filled               {fill: #262626; stroke: none;}
    text.terminal         {font-family: Verdana, Sans-serif;
                            font-size: 12px;
                            fill: #0A0A0A;
                            font-weight: bold;
                          }
    text.nonterminal      {font-family: Verdana, Sans-serif;
                            font-size: 12px;
                            fill: #0D0D0D;
                            font-weight: normal;
                          }
    text.regexp           {font-family: Verdana, Sans-serif;
                            font-size: 12px;
                            fill: #0F0F0F;
                            font-weight: normal;
                          }
    rect, circle, polygon {fill: #262626; stroke: #262626;}
    rect.terminal         {fill: #FFFFFF; stroke: #262626; stroke-width: 1;}
    rect.nonterminal      {fill: #FFFFFF; stroke: #262626; stroke-width: 1;}
    rect.text             {fill: none; stroke: none;}
    polygon.regexp        {fill: #FFFFFF; stroke: #262626; stroke-width: 1;}
  </style>
   </defs>
   <polygon points="9 17 1 13 1 21"/>
   <polygon points="17 17 9 13 9 21"/>
   <rect x="31" y="3" width="162" height="32" rx="10"/>
   <rect x="29"
         y="1"
         width="162"
         height="32"
         class="terminal"
         rx="10"/>
   <text class="terminal" x="39" y="21">type = "Binary.Long"</text>
   <rect x="253" y="35" width="128" height="32" rx="10"/>
   <rect x="251"
         y="33"
         width="128"
         height="32"
         class="terminal"
         rx="10"/>
   <text class="terminal" x="261" y="53">null-input-value</text>
   <rect x="401" y="35" width="30" height="32" rx="10"/>
   <rect x="399"
         y="33"
         width="30"
         height="32"
         class="terminal"
         rx="10"/>
   <text class="terminal" x="409" y="53">=</text>
   <a xmlns:xlink="http://www.w3.org/1999/xlink"
      xlink:href="#integer"
      xlink:title="integer">
      <rect x="451" y="35" width="64" height="32"/>
      <rect x="449" y="33" width="64" height="32" class="nonterminal"/>
      <text class="nonterminal" x="459" y="53">integer</text>
   </a>
   <rect x="273" y="79" width="92" height="32" rx="10"/>
   <rect x="271"
         y="77"
         width="92"
         height="32"
         class="terminal"
         rx="10"/>
   <text class="terminal" x="281" y="97">byte-order</text>
   <rect x="273" y="123" width="94" height="32" rx="10"/>
   <rect x="271"
         y="121"
         width="94"
         height="32"
         class="terminal"
         rx="10"/>
   <text class="terminal" x="281" y="141">quote-char</text>
   <rect x="273" y="167" width="102" height="32" rx="10"/>
   <rect x="271"
         y="165"
         width="102"
         height="32"
         class="terminal"
         rx="10"/>
   <text class="terminal" x="281" y="185">escape-char</text>
   <rect x="273" y="211" width="92" height="32" rx="10"/>
   <rect x="271"
         y="209"
         width="92"
         height="32"
         class="terminal"
         rx="10"/>
   <text class="terminal" x="281" y="229">escape-set</text>
   <rect x="415" y="79" width="30" height="32" rx="10"/>
   <rect x="413"
         y="77"
         width="30"
         height="32"
         class="terminal"
         rx="10"/>
   <text class="terminal" x="423" y="97">=</text>
   <a xmlns:xlink="http://www.w3.org/1999/xlink"
      xlink:href="#string"
      xlink:title="string">
      <rect x="465" y="79" width="56" height="32"/>
      <rect x="463" y="77" width="56" height="32" class="nonterminal"/>
      <text class="nonterminal" x="473" y="97">string</text>
   </a>
   <path class="line"
         d="m17 17 h2 m0 0 h10 m162 0 h10 m40 0 h10 m0 0 h278 m-308 0 h20 m288 0 h20 m-328 0 q10 0 10 10 m308 0 q0 -10 10 -10 m-318 10 v12 m308 0 v-12 m-308 12 q0 10 10 10 m288 0 q10 0 10 -10 m-298 10 h10 m128 0 h10 m0 0 h10 m30 0 h10 m0 0 h10 m64 0 h10 m0 0 h6 m-298 -10 v20 m308 0 v-20 m-308 20 v24 m308 0 v-24 m-308 24 q0 10 10 10 m288 0 q10 0 10 -10 m-278 10 h10 m92 0 h10 m0 0 h10 m-142 0 h20 m122 0 h20 m-162 0 q10 0 10 10 m142 0 q0 -10 10 -10 m-152 10 v24 m142 0 v-24 m-142 24 q0 10 10 10 m122 0 q10 0 10 -10 m-132 10 h10 m94 0 h10 m0 0 h8 m-132 -10 v20 m142 0 v-20 m-142 20 v24 m142 0 v-24 m-142 24 q0 10 10 10 m122 0 q10 0 10 -10 m-132 10 h10 m102 0 h10 m-132 -10 v20 m142 0 v-20 m-142 20 v24 m142 0 v-24 m-142 24 q0 10 10 10 m122 0 q10 0 10 -10 m-132 10 h10 m92 0 h10 m0 0 h10 m20 -132 h10 m30 0 h10 m0 0 h10 m56 0 h10 m-328 -76 l20 0 m-1 0 q-9 0 -9 -10 l0 4 q0 -10 10 -10 m328 16 l20 0 m-20 0 q10 0 10 -10 l0 4 q0 -10 -10 -10 m-328 0 h10 m0 0 h318 m23 16 h-3"/>
   <polygon points="579 17 587 13 587 21"/>
   <polygon points="579 17 571 13 571 21"/>
</svg>
