<?xml version="1.0" encoding="UTF-8"?>
<svg xmlns="http://www.w3.org/2000/svg" width="781" height="715">
   <defs>
      <style type="text/css">
    @namespace "http://www.w3.org/2000/svg";
    .line                 {fill: none; stroke: #262626; stroke-width: 1;}
    .bold-line            {stroke: #0A0A0A; shape-rendering: crispEdges; stroke-width: 2;}
    .thin-line            {stroke: #0F0F0F; shape-rendering: crispEdges}
    .filled               {fill: #262626; stroke: none;}
    text.terminal         {font-family: Verdana, Sans-serif;
                            font-size: 12px;
                            fill: #0A0A0A;
                            font-weight: bold;
                          }
    text.nonterminal      {font-family: Verdana, Sans-serif;
                            font-size: 12px;
                            fill: #0D0D0D;
                            font-weight: normal;
                          }
    text.regexp           {font-family: Verdana, Sans-serif;
                            font-size: 12px;
                            fill: #0F0F0F;
                            font-weight: normal;
                          }
    rect, circle, polygon {fill: #262626; stroke: #262626;}
    rect.terminal         {fill: #FFFFFF; stroke: #262626; stroke-width: 1;}
    rect.nonterminal      {fill: #FFFFFF; stroke: #262626; stroke-width: 1;}
    rect.text             {fill: none; stroke: none;}
    polygon.regexp        {fill: #FFFFFF; stroke: #262626; stroke-width: 1;}
  </style>
   </defs>
   <polygon points="9 17 1 13 1 21"/>
   <polygon points="17 17 9 13 9 21"/>
   <rect x="31" y="3" width="28" height="32" rx="10"/>
   <rect x="29"
         y="1"
         width="28"
         height="32"
         class="terminal"
         rx="10"/>
   <text class="terminal" x="39" y="21">{</text>
   <rect x="139" y="35" width="56" height="32" rx="10"/>
   <rect x="137"
         y="33"
         width="56"
         height="32"
         class="terminal"
         rx="10"/>
   <text class="terminal" x="147" y="53">name</text>
   <rect x="139" y="79" width="148" height="32" rx="10"/>
   <rect x="137"
         y="77"
         width="148"
         height="32"
         class="terminal"
         rx="10"/>
   <text class="terminal" x="147" y="97">regular-expression</text>
   <rect x="139" y="123" width="220" height="32" rx="10"/>
   <rect x="137"
         y="121"
         width="220"
         height="32"
         class="terminal"
         rx="10"/>
   <text class="terminal" x="147" y="141">separator-regular-expression</text>
   <rect x="139" y="167" width="84" height="32" rx="10"/>
   <rect x="137"
         y="165"
         width="84"
         height="32"
         class="terminal"
         rx="10"/>
   <text class="terminal" x="147" y="185">separator</text>
   <rect x="139" y="211" width="226" height="32" rx="10"/>
   <rect x="137"
         y="209"
         width="226"
         height="32"
         class="terminal"
         rx="10"/>
   <text class="terminal" x="147" y="229">terminator-regular-expression</text>
   <rect x="139" y="255" width="92" height="32" rx="10"/>
   <rect x="137"
         y="253"
         width="92"
         height="32"
         class="terminal"
         rx="10"/>
   <text class="terminal" x="147" y="273">terminator</text>
   <rect x="405" y="35" width="30" height="32" rx="10"/>
   <rect x="403"
         y="33"
         width="30"
         height="32"
         class="terminal"
         rx="10"/>
   <text class="terminal" x="413" y="53">=</text>
   <a xmlns:xlink="http://www.w3.org/1999/xlink"
      xlink:href="#string"
      xlink:title="string">
      <rect x="455" y="35" width="56" height="32"/>
      <rect x="453" y="33" width="56" height="32" class="nonterminal"/>
      <text class="nonterminal" x="463" y="53">string</text>
   </a>
   <rect x="119" y="299" width="166" height="32" rx="10"/>
   <rect x="117"
         y="297"
         width="166"
         height="32"
         class="terminal"
         rx="10"/>
   <text class="terminal" x="127" y="317">type = "ListTerminal"</text>
   <rect x="119" y="343" width="78" height="32" rx="10"/>
   <rect x="117"
         y="341"
         width="78"
         height="32"
         class="terminal"
         rx="10"/>
   <text class="terminal" x="127" y="361">mapping</text>
   <rect x="217" y="343" width="30" height="32" rx="10"/>
   <rect x="215"
         y="341"
         width="30"
         height="32"
         class="terminal"
         rx="10"/>
   <text class="terminal" x="225" y="361">=</text>
   <a xmlns:xlink="http://www.w3.org/1999/xlink"
      xlink:href="#MessageMapping"
      xlink:title="MessageMapping">
      <rect x="267" y="343" width="130" height="32"/>
      <rect x="265" y="341" width="130" height="32" class="nonterminal"/>
      <text class="nonterminal" x="275" y="361">MessageMapping</text>
   </a>
   <rect x="139" y="409" width="60" height="32" rx="10"/>
   <rect x="137"
         y="407"
         width="60"
         height="32"
         class="terminal"
         rx="10"/>
   <text class="terminal" x="147" y="427">states</text>
   <rect x="219" y="409" width="30" height="32" rx="10"/>
   <rect x="217"
         y="407"
         width="30"
         height="32"
         class="terminal"
         rx="10"/>
   <text class="terminal" x="227" y="427">=</text>
   <rect x="269" y="409" width="26" height="32" rx="10"/>
   <rect x="267"
         y="407"
         width="26"
         height="32"
         class="terminal"
         rx="10"/>
   <text class="terminal" x="277" y="427">[</text>
   <a xmlns:xlink="http://www.w3.org/1999/xlink"
      xlink:href="#string"
      xlink:title="string">
      <rect x="335" y="409" width="56" height="32"/>
      <rect x="333" y="407" width="56" height="32" class="nonterminal"/>
      <text class="nonterminal" x="343" y="427">string</text>
   </a>
   <rect x="431" y="441" width="24" height="32" rx="10"/>
   <rect x="429"
         y="439"
         width="24"
         height="32"
         class="terminal"
         rx="10"/>
   <text class="terminal" x="439" y="459">,</text>
   <rect x="139" y="507" width="54" height="32" rx="10"/>
   <rect x="137"
         y="505"
         width="54"
         height="32"
         class="terminal"
         rx="10"/>
   <text class="terminal" x="147" y="525">parts</text>
   <rect x="213" y="507" width="30" height="32" rx="10"/>
   <rect x="211"
         y="505"
         width="30"
         height="32"
         class="terminal"
         rx="10"/>
   <text class="terminal" x="221" y="525">=</text>
   <rect x="263" y="507" width="26" height="32" rx="10"/>
   <rect x="261"
         y="505"
         width="26"
         height="32"
         class="terminal"
         rx="10"/>
   <text class="terminal" x="271" y="525">[</text>
   <a xmlns:xlink="http://www.w3.org/1999/xlink"
      xlink:href="#ElementPart"
      xlink:title="ElementPart">
      <rect x="329" y="507" width="98" height="32"/>
      <rect x="327" y="505" width="98" height="32" class="nonterminal"/>
      <text class="nonterminal" x="337" y="525">ElementPart</text>
   </a>
   <rect x="467" y="539" width="24" height="32" rx="10"/>
   <rect x="465"
         y="537"
         width="24"
         height="32"
         class="terminal"
         rx="10"/>
   <text class="terminal" x="475" y="557">,</text>
   <rect x="139" y="605" width="84" height="32" rx="10"/>
   <rect x="137"
         y="603"
         width="84"
         height="32"
         class="terminal"
         rx="10"/>
   <text class="terminal" x="147" y="623">reference</text>
   <rect x="243" y="605" width="30" height="32" rx="10"/>
   <rect x="241"
         y="603"
         width="30"
         height="32"
         class="terminal"
         rx="10"/>
   <text class="terminal" x="251" y="623">=</text>
   <rect x="293" y="605" width="26" height="32" rx="10"/>
   <rect x="291"
         y="603"
         width="26"
         height="32"
         class="terminal"
         rx="10"/>
   <text class="terminal" x="301" y="623">[</text>
   <a xmlns:xlink="http://www.w3.org/1999/xlink"
      xlink:href="#ElementReference"
      xlink:title="ElementReference">
      <rect x="359" y="605" width="136" height="32"/>
      <rect x="357" y="603" width="136" height="32" class="nonterminal"/>
      <text class="nonterminal" x="367" y="623">ElementReference</text>
   </a>
   <rect x="535" y="637" width="24" height="32" rx="10"/>
   <rect x="533"
         y="635"
         width="24"
         height="32"
         class="terminal"
         rx="10"/>
   <text class="terminal" x="543" y="655">,</text>
   <rect x="639" y="409" width="26" height="32" rx="10"/>
   <rect x="637"
         y="407"
         width="26"
         height="32"
         class="terminal"
         rx="10"/>
   <text class="terminal" x="647" y="427">]</text>
   <a xmlns:xlink="http://www.w3.org/1999/xlink"
      xlink:href="#Action"
      xlink:title="Action">
      <rect x="119" y="681" width="58" height="32"/>
      <rect x="117" y="679" width="58" height="32" class="nonterminal"/>
      <text class="nonterminal" x="127" y="699">Action</text>
   </a>
   <rect x="725" y="3" width="28" height="32" rx="10"/>
   <rect x="723"
         y="1"
         width="28"
         height="32"
         class="terminal"
         rx="10"/>
   <text class="terminal" x="733" y="21">}</text>
   <path class="line"
         d="m17 17 h2 m0 0 h10 m28 0 h10 m40 0 h10 m0 0 h556 m-586 0 h20 m566 0 h20 m-606 0 q10 0 10 10 m586 0 q0 -10 10 -10 m-596 10 v12 m586 0 v-12 m-586 12 q0 10 10 10 m566 0 q10 0 10 -10 m-556 10 h10 m56 0 h10 m0 0 h170 m-266 0 h20 m246 0 h20 m-286 0 q10 0 10 10 m266 0 q0 -10 10 -10 m-276 10 v24 m266 0 v-24 m-266 24 q0 10 10 10 m246 0 q10 0 10 -10 m-256 10 h10 m148 0 h10 m0 0 h78 m-256 -10 v20 m266 0 v-20 m-266 20 v24 m266 0 v-24 m-266 24 q0 10 10 10 m246 0 q10 0 10 -10 m-256 10 h10 m220 0 h10 m0 0 h6 m-256 -10 v20 m266 0 v-20 m-266 20 v24 m266 0 v-24 m-266 24 q0 10 10 10 m246 0 q10 0 10 -10 m-256 10 h10 m84 0 h10 m0 0 h142 m-256 -10 v20 m266 0 v-20 m-266 20 v24 m266 0 v-24 m-266 24 q0 10 10 10 m246 0 q10 0 10 -10 m-256 10 h10 m226 0 h10 m-256 -10 v20 m266 0 v-20 m-266 20 v24 m266 0 v-24 m-266 24 q0 10 10 10 m246 0 q10 0 10 -10 m-256 10 h10 m92 0 h10 m0 0 h134 m20 -220 h10 m30 0 h10 m0 0 h10 m56 0 h10 m0 0 h154 m-576 -10 v20 m586 0 v-20 m-586 20 v244 m586 0 v-244 m-586 244 q0 10 10 10 m566 0 q10 0 10 -10 m-576 10 h10 m166 0 h10 m0 0 h380 m-576 -10 v20 m586 0 v-20 m-586 20 v24 m586 0 v-24 m-586 24 q0 10 10 10 m566 0 q10 0 10 -10 m-576 10 h10 m78 0 h10 m0 0 h10 m30 0 h10 m0 0 h10 m130 0 h10 m0 0 h268 m-576 -10 v20 m586 0 v-20 m-586 20 v46 m586 0 v-46 m-586 46 q0 10 10 10 m566 0 q10 0 10 -10 m-556 10 h10 m60 0 h10 m0 0 h10 m30 0 h10 m0 0 h10 m26 0 h10 m20 0 h10 m56 0 h10 m20 0 h10 m0 0 h34 m-64 0 h20 m44 0 h20 m-84 0 q10 0 10 10 m64 0 q0 -10 10 -10 m-74 10 v12 m64 0 v-12 m-64 12 q0 10 10 10 m44 0 q10 0 10 -10 m-54 10 h10 m24 0 h10 m-160 -32 l20 0 m-1 0 q-9 0 -9 -10 l0 -12 q0 -10 10 -10 m160 32 l20 0 m-20 0 q10 0 10 -10 l0 -12 q0 -10 -10 -10 m-160 0 h10 m0 0 h150 m20 32 h104 m-500 0 h20 m480 0 h20 m-520 0 q10 0 10 10 m500 0 q0 -10 10 -10 m-510 10 v78 m500 0 v-78 m-500 78 q0 10 10 10 m480 0 q10 0 10 -10 m-490 10 h10 m54 0 h10 m0 0 h10 m30 0 h10 m0 0 h10 m26 0 h10 m20 0 h10 m98 0 h10 m20 0 h10 m0 0 h34 m-64 0 h20 m44 0 h20 m-84 0 q10 0 10 10 m64 0 q0 -10 10 -10 m-74 10 v12 m64 0 v-12 m-64 12 q0 10 10 10 m44 0 q10 0 10 -10 m-54 10 h10 m24 0 h10 m-202 -32 l20 0 m-1 0 q-9 0 -9 -10 l0 -12 q0 -10 10 -10 m202 32 l20 0 m-20 0 q10 0 10 -10 l0 -12 q0 -10 -10 -10 m-202 0 h10 m0 0 h192 m20 32 h68 m-490 -10 v20 m500 0 v-20 m-500 20 v78 m500 0 v-78 m-500 78 q0 10 10 10 m480 0 q10 0 10 -10 m-490 10 h10 m84 0 h10 m0 0 h10 m30 0 h10 m0 0 h10 m26 0 h10 m20 0 h10 m136 0 h10 m20 0 h10 m0 0 h34 m-64 0 h20 m44 0 h20 m-84 0 q10 0 10 10 m64 0 q0 -10 10 -10 m-74 10 v12 m64 0 v-12 m-64 12 q0 10 10 10 m44 0 q10 0 10 -10 m-54 10 h10 m24 0 h10 m-240 -32 l20 0 m-1 0 q-9 0 -9 -10 l0 -12 q0 -10 10 -10 m240 32 l20 0 m-20 0 q10 0 10 -10 l0 -12 q0 -10 -10 -10 m-240 0 h10 m0 0 h230 m40 -164 h10 m26 0 h10 m-576 -10 v20 m586 0 v-20 m-586 20 v252 m586 0 v-252 m-586 252 q0 10 10 10 m566 0 q10 0 10 -10 m-576 10 h10 m58 0 h10 m0 0 h488 m-606 -678 l20 0 m-1 0 q-9 0 -9 -10 l0 4 q0 -10 10 -10 m606 16 l20 0 m-20 0 q10 0 10 -10 l0 4 q0 -10 -10 -10 m-606 0 h10 m0 0 h596 m20 16 h10 m28 0 h10 m3 0 h-3"/>
   <polygon points="771 17 779 13 779 21"/>
   <polygon points="771 17 763 13 763 21"/>
</svg>
