<?xml version="1.0" encoding="UTF-8"?>
<svg xmlns="http://www.w3.org/2000/svg" width="657" height="465">
   <defs>
      <style type="text/css">
    @namespace "http://www.w3.org/2000/svg";
    .line                 {fill: none; stroke: #262626; stroke-width: 1;}
    .bold-line            {stroke: #0A0A0A; shape-rendering: crispEdges; stroke-width: 2;}
    .thin-line            {stroke: #0F0F0F; shape-rendering: crispEdges}
    .filled               {fill: #262626; stroke: none;}
    text.terminal         {font-family: Verdana, Sans-serif;
                            font-size: 12px;
                            fill: #0A0A0A;
                            font-weight: bold;
                          }
    text.nonterminal      {font-family: Verdana, Sans-serif;
                            font-size: 12px;
                            fill: #0D0D0D;
                            font-weight: normal;
                          }
    text.regexp           {font-family: Verdana, Sans-serif;
                            font-size: 12px;
                            fill: #0F0F0F;
                            font-weight: normal;
                          }
    rect, circle, polygon {fill: #262626; stroke: #262626;}
    rect.terminal         {fill: #FFFFFF; stroke: #262626; stroke-width: 1;}
    rect.nonterminal      {fill: #FFFFFF; stroke: #262626; stroke-width: 1;}
    rect.text             {fill: none; stroke: none;}
    polygon.regexp        {fill: #FFFFFF; stroke: #262626; stroke-width: 1;}
  </style>
   </defs>
   <polygon points="9 17 1 13 1 21"/>
   <polygon points="17 17 9 13 9 21"/>
   <rect x="31" y="3" width="162" height="32" rx="10"/>
   <rect x="29"
         y="1"
         width="162"
         height="32"
         class="terminal"
         rx="10"/>
   <text class="terminal" x="39" y="21">type = "Text.Double"</text>
   <rect x="273" y="35" width="128" height="32" rx="10"/>
   <rect x="271"
         y="33"
         width="128"
         height="32"
         class="terminal"
         rx="10"/>
   <text class="terminal" x="281" y="53">null-input-value</text>
   <rect x="273" y="79" width="142" height="32" rx="10"/>
   <rect x="271"
         y="77"
         width="142"
         height="32"
         class="terminal"
         rx="10"/>
   <text class="terminal" x="281" y="97">decimal-separator</text>
   <rect x="273" y="123" width="152" height="32" rx="10"/>
   <rect x="271"
         y="121"
         width="152"
         height="32"
         class="terminal"
         rx="10"/>
   <text class="terminal" x="281" y="141">grouping-separator</text>
   <rect x="273" y="167" width="94" height="32" rx="10"/>
   <rect x="271"
         y="165"
         width="94"
         height="32"
         class="terminal"
         rx="10"/>
   <text class="terminal" x="281" y="185">quote-char</text>
   <rect x="273" y="211" width="102" height="32" rx="10"/>
   <rect x="271"
         y="209"
         width="102"
         height="32"
         class="terminal"
         rx="10"/>
   <text class="terminal" x="281" y="229">escape-char</text>
   <rect x="273" y="255" width="92" height="32" rx="10"/>
   <rect x="271"
         y="253"
         width="92"
         height="32"
         class="terminal"
         rx="10"/>
   <text class="terminal" x="281" y="273">escape-set</text>
   <rect x="465" y="35" width="30" height="32" rx="10"/>
   <rect x="463"
         y="33"
         width="30"
         height="32"
         class="terminal"
         rx="10"/>
   <text class="terminal" x="473" y="53">=</text>
   <a xmlns:xlink="http://www.w3.org/1999/xlink"
      xlink:href="#string"
      xlink:title="string">
      <rect x="515" y="35" width="56" height="32"/>
      <rect x="513" y="33" width="56" height="32" class="nonterminal"/>
      <text class="nonterminal" x="523" y="53">string</text>
   </a>
   <rect x="273" y="299" width="120" height="32" rx="10"/>
   <rect x="271"
         y="297"
         width="120"
         height="32"
         class="terminal"
         rx="10"/>
   <text class="terminal" x="281" y="317">fixed-precision</text>
   <rect x="273" y="343" width="158" height="32" rx="10"/>
   <rect x="271"
         y="341"
         width="158"
         height="32"
         class="terminal"
         rx="10"/>
   <text class="terminal" x="281" y="361">min-fractional-digits</text>
   <rect x="273" y="387" width="162" height="32" rx="10"/>
   <rect x="271"
         y="385"
         width="162"
         height="32"
         class="terminal"
         rx="10"/>
   <text class="terminal" x="281" y="405">max-fractional-digits</text>
   <rect x="475" y="299" width="30" height="32" rx="10"/>
   <rect x="473"
         y="297"
         width="30"
         height="32"
         class="terminal"
         rx="10"/>
   <text class="terminal" x="483" y="317">=</text>
   <a xmlns:xlink="http://www.w3.org/1999/xlink"
      xlink:href="#integer"
      xlink:title="integer">
      <rect x="525" y="299" width="64" height="32"/>
      <rect x="523" y="297" width="64" height="32" class="nonterminal"/>
      <text class="nonterminal" x="533" y="317">integer</text>
   </a>
   <rect x="253" y="431" width="110" height="32" rx="10"/>
   <rect x="251"
         y="429"
         width="110"
         height="32"
         class="terminal"
         rx="10"/>
   <text class="terminal" x="261" y="449">use-grouping</text>
   <rect x="383" y="431" width="30" height="32" rx="10"/>
   <rect x="381"
         y="429"
         width="30"
         height="32"
         class="terminal"
         rx="10"/>
   <text class="terminal" x="391" y="449">=</text>
   <a xmlns:xlink="http://www.w3.org/1999/xlink"
      xlink:href="#boolean"
      xlink:title="boolean">
      <rect x="433" y="431" width="70" height="32"/>
      <rect x="431" y="429" width="70" height="32" class="nonterminal"/>
      <text class="nonterminal" x="441" y="449">boolean</text>
   </a>
   <path class="line"
         d="m17 17 h2 m0 0 h10 m162 0 h10 m40 0 h10 m0 0 h346 m-376 0 h20 m356 0 h20 m-396 0 q10 0 10 10 m376 0 q0 -10 10 -10 m-386 10 v12 m376 0 v-12 m-376 12 q0 10 10 10 m356 0 q10 0 10 -10 m-346 10 h10 m128 0 h10 m0 0 h24 m-192 0 h20 m172 0 h20 m-212 0 q10 0 10 10 m192 0 q0 -10 10 -10 m-202 10 v24 m192 0 v-24 m-192 24 q0 10 10 10 m172 0 q10 0 10 -10 m-182 10 h10 m142 0 h10 m0 0 h10 m-182 -10 v20 m192 0 v-20 m-192 20 v24 m192 0 v-24 m-192 24 q0 10 10 10 m172 0 q10 0 10 -10 m-182 10 h10 m152 0 h10 m-182 -10 v20 m192 0 v-20 m-192 20 v24 m192 0 v-24 m-192 24 q0 10 10 10 m172 0 q10 0 10 -10 m-182 10 h10 m94 0 h10 m0 0 h58 m-182 -10 v20 m192 0 v-20 m-192 20 v24 m192 0 v-24 m-192 24 q0 10 10 10 m172 0 q10 0 10 -10 m-182 10 h10 m102 0 h10 m0 0 h50 m-182 -10 v20 m192 0 v-20 m-192 20 v24 m192 0 v-24 m-192 24 q0 10 10 10 m172 0 q10 0 10 -10 m-182 10 h10 m92 0 h10 m0 0 h60 m20 -220 h10 m30 0 h10 m0 0 h10 m56 0 h10 m0 0 h18 m-366 -10 v20 m376 0 v-20 m-376 20 v244 m376 0 v-244 m-376 244 q0 10 10 10 m356 0 q10 0 10 -10 m-346 10 h10 m120 0 h10 m0 0 h42 m-202 0 h20 m182 0 h20 m-222 0 q10 0 10 10 m202 0 q0 -10 10 -10 m-212 10 v24 m202 0 v-24 m-202 24 q0 10 10 10 m182 0 q10 0 10 -10 m-192 10 h10 m158 0 h10 m0 0 h4 m-192 -10 v20 m202 0 v-20 m-202 20 v24 m202 0 v-24 m-202 24 q0 10 10 10 m182 0 q10 0 10 -10 m-192 10 h10 m162 0 h10 m20 -88 h10 m30 0 h10 m0 0 h10 m64 0 h10 m-366 -10 v20 m376 0 v-20 m-376 20 v112 m376 0 v-112 m-376 112 q0 10 10 10 m356 0 q10 0 10 -10 m-366 10 h10 m110 0 h10 m0 0 h10 m30 0 h10 m0 0 h10 m70 0 h10 m0 0 h86 m-396 -428 l20 0 m-1 0 q-9 0 -9 -10 l0 4 q0 -10 10 -10 m396 16 l20 0 m-20 0 q10 0 10 -10 l0 4 q0 -10 -10 -10 m-396 0 h10 m0 0 h386 m23 16 h-3"/>
   <polygon points="647 17 655 13 655 21"/>
   <polygon points="647 17 639 13 639 21"/>
</svg>
