<svg xmlns="http://www.w3.org/2000/svg" fill-rule="evenodd" width="100%" height="100%" stroke-linejoin="round" stroke-miterlimit="1.414" clip-rule="evenodd" version="1.1" viewBox="0 0 98 113" xml:space="preserve"><g fill-rule="nonzero"><path d="M41.64 18.893a1.639 1.639 0 0 1 0 2.723L22.416 34.514a1.64 1.64 0 0 1-1.828 0l-19.221-12.9a1.642 1.642 0 0 1 0-2.723l19.221-12.9a1.64 1.64 0 0 1 1.828.001l19.223 12.9zm54.096 36.296a1.64 1.64 0 0 1 0 2.724l-19.224 12.9a1.642 1.642 0 0 1-1.828 0c-3.288-2.207-14.57-9.78-19.221-12.9a1.64 1.64 0 0 1 0-2.724c4.65-3.12 15.934-10.69 19.22-12.898a1.64 1.64 0 0 1 1.829 0l19.224 12.9zm-27.05 18.15a1.64 1.64 0 0 1 0 2.723l-19.224 12.9a1.639 1.639 0 0 1-1.828-.001l-19.22-12.899a1.64 1.64 0 0 1 0-2.723l19.22-12.898a1.64 1.64 0 0 1 1.828 0l19.224 12.898zM41.645 91.487a1.64 1.64 0 0 1 0 2.723l-19.223 12.9a1.64 1.64 0 0 1-1.828.001l-19.222-12.9a1.64 1.64 0 0 1 0-2.724c4.652-3.12 15.933-10.69 19.222-12.897a1.64 1.64 0 0 1 1.828 0l19.223 12.897z" fill="#ff5722"/><path d="M55.463 94.023a1.642 1.642 0 0 1 0-2.724l19.222-12.9a1.64 1.64 0 0 1 1.828 0l19.223 12.9a1.638 1.638 0 0 1 0 2.724c-4.652 3.121-15.934 10.692-19.224 12.898a1.64 1.64 0 0 1-1.826.003l-19.223-12.9z" fill="#646464"/><path d="M1.372 57.724a1.642 1.642 0 0 1 0-2.724l19.222-12.9a1.64 1.64 0 0 1 1.828-.001l19.223 12.897a1.64 1.64 0 0 1 0 2.724l-19.225 12.9a1.64 1.64 0 0 1-1.828 0L1.372 57.723z" fill="#828282"/><path d="M28.416 39.575a1.64 1.64 0 0 1 0-2.724L47.64 23.954a1.64 1.64 0 0 1 1.828 0l19.22 12.897a1.639 1.639 0 0 1 0 2.723l-19.22 12.9a1.64 1.64 0 0 1-1.828 0l-19.223-12.9z" fill="#a0a0a0"/><path d="M55.462 21.428a1.64 1.64 0 0 1 0-2.724L74.685 5.802a1.64 1.64 0 0 1 1.828 0l19.222 12.902a1.64 1.64 0 0 1 0 2.724L76.513 34.325a1.64 1.64 0 0 1-1.829 0c-3.287-2.206-14.57-9.777-19.222-12.897z" fill="#bebebe"/></g></svg>