<?xml version="1.0" encoding="UTF-8" standalone="no"?><!DOCTYPE svg PUBLIC "-//W3C//DTD SVG 1.1//EN" "http://www.w3.org/Graphics/SVG/1.1/DTD/svg11.dtd"><svg width="100%" height="100%" viewBox="0 0 432 128" version="1.1" xmlns="http://www.w3.org/2000/svg" xmlns:xlink="http://www.w3.org/1999/xlink" xml:space="preserve" xmlns:serif="http://www.serif.com/" style="fill-rule:evenodd;clip-rule:evenodd;stroke-linejoin:round;stroke-miterlimit:1.41421;"><g id="Ebene-1" serif:id="Ebene 1"><g><path d="M141.96,25.567c0.29,0 0.522,0.088 0.695,0.264c0.174,0.176 0.261,0.411 0.261,0.704l0,65.032l-6.603,0c-0.232,0 -0.449,-0.102 -0.652,-0.308c-0.203,-0.205 -0.304,-0.425 -0.304,-0.66l0,-65.032l6.603,0Z" style="fill:#666;fill-rule:nonzero;"/><path d="M170.894,47.567c3.649,0 6.676,1.086 9.08,3.256c2.404,2.171 3.606,5.192 3.606,9.064l0,28.864c0,0.763 -0.261,1.423 -0.782,1.98c-0.522,0.558 -1.188,0.836 -1.999,0.836l-20.331,0c-2.318,0 -4.446,-0.572 -6.387,-1.716c-1.94,-1.144 -3.475,-2.698 -4.605,-4.664c-1.129,-1.965 -1.694,-4.121 -1.694,-6.468l0,-2.728c0,-2.346 0.565,-4.502 1.694,-6.468c1.13,-1.965 2.665,-3.52 4.605,-4.664c1.941,-1.144 4.069,-1.716 6.387,-1.716l14.684,0c0.289,0 0.521,-0.102 0.695,-0.308c0.173,-0.205 0.26,-0.425 0.26,-0.66l0,-2.2c0,-1.466 -0.463,-2.698 -1.39,-3.696c-0.927,-0.997 -2.201,-1.496 -3.823,-1.496l-17.291,0c-0.231,0 -0.449,-0.102 -0.651,-0.308c-0.203,-0.205 -0.304,-0.425 -0.304,-0.66l0,-6.248l18.246,0Zm-15.553,31.328c0,1.467 0.492,2.699 1.477,3.696c0.985,0.998 2.201,1.496 3.65,1.496l14.77,0c0.232,0 0.435,-0.088 0.609,-0.264c0.173,-0.176 0.26,-0.41 0.26,-0.704l0,-13.992c-0.405,0.763 -1.158,1.203 -2.259,1.32l-13.38,0c-1.449,0 -2.665,0.499 -3.65,1.496c-0.985,0.998 -1.477,2.23 -1.477,3.696l0,3.256Z" style="fill:#666;fill-rule:nonzero;"/><path d="M224.591,47.567c0.289,0 0.521,0.088 0.695,0.264c0.174,0.176 0.261,0.382 0.261,0.616l0,51.744c0,2.347 -0.565,4.503 -1.695,6.468c-1.129,1.966 -2.679,3.52 -4.648,4.664c-1.97,1.144 -4.084,1.716 -6.343,1.716l-21.374,0l0,-6.336c0,-0.234 0.101,-0.454 0.304,-0.66c0.202,-0.205 0.42,-0.308 0.651,-0.308l20.419,0c1.39,0 2.592,-0.513 3.606,-1.54c1.014,-1.026 1.52,-2.244 1.52,-3.652l0,-11.792c-0.637,0.822 -1.477,1.496 -2.519,2.024c-1.043,0.528 -2.202,0.792 -3.476,0.792l-9.818,0c-2.317,0 -4.446,-0.572 -6.387,-1.716c-1.94,-1.144 -3.475,-2.713 -4.605,-4.708c-1.129,-1.994 -1.694,-4.136 -1.694,-6.424l0,-31.152l6.604,0c0.289,0 0.521,0.088 0.695,0.264c0.173,0.176 0.26,0.382 0.26,0.616l0,30.624c0,1.408 0.493,2.626 1.477,3.652c0.985,1.027 2.202,1.54 3.65,1.54l11.556,0c1.158,-0.176 2.143,-0.689 2.954,-1.54c0.811,-0.85 1.245,-1.833 1.303,-2.948l0,-32.208l6.604,0Z" style="fill:#666;fill-rule:nonzero;"/><path d="M238.406,25.567c0.29,0 0.521,0.088 0.695,0.264c0.174,0.176 0.261,0.411 0.261,0.704l0,65.032l-6.604,0c-0.231,0 -0.449,-0.102 -0.651,-0.308c-0.203,-0.205 -0.304,-0.425 -0.304,-0.66l0,-65.032l6.603,0Z" style="fill:#666;fill-rule:nonzero;"/><path d="M252.743,27.855c0.289,0 0.521,0.088 0.695,0.264c0.173,0.176 0.26,0.411 0.26,0.704l0,7.216l-6.603,0c-0.232,0 -0.449,-0.102 -0.652,-0.308c-0.203,-0.205 -0.304,-0.425 -0.304,-0.66l0,-7.216l6.604,0Zm0,19.712c0.289,0 0.521,0.088 0.695,0.264c0.173,0.176 0.26,0.382 0.26,0.616l0,43.12l-6.603,0c-0.232,0 -0.449,-0.102 -0.652,-0.308c-0.203,-0.205 -0.304,-0.425 -0.304,-0.66l0,-43.032l6.604,0Z" style="fill:#666;fill-rule:nonzero;"/><path d="M284.544,47.567c2.317,0 4.445,0.572 6.386,1.716c1.94,1.144 3.475,2.699 4.605,4.664c1.129,1.966 1.694,4.122 1.694,6.468l0,31.152l-6.603,0c-0.232,0 -0.449,-0.102 -0.652,-0.308c-0.203,-0.205 -0.304,-0.425 -0.304,-0.66l0,-30.624c0,-1.408 -0.492,-2.625 -1.477,-3.652c-0.985,-1.026 -2.201,-1.54 -3.649,-1.54l-15.727,0c-0.232,0 -0.449,0.088 -0.652,0.264c-0.203,0.176 -0.304,0.411 -0.304,0.704l0,34.848c0,0.235 -0.087,0.455 -0.261,0.66c-0.173,0.206 -0.405,0.308 -0.695,0.308l-6.603,0l0,-38.28c0,-1.584 0.55,-2.933 1.651,-4.048c1.1,-1.114 2.433,-1.672 3.997,-1.672l18.594,0Z" style="fill:#666;fill-rule:nonzero;"/><path d="M316.258,91.567c-2.317,0 -4.446,-0.572 -6.387,-1.716c-1.94,-1.144 -3.475,-2.698 -4.605,-4.664c-1.129,-1.965 -1.694,-4.121 -1.694,-6.468l0,-18.656c0,-3.93 1.202,-6.996 3.606,-9.196c2.404,-2.2 5.43,-3.3 9.08,-3.3l11.643,0c3.649,0 6.676,1.1 9.079,3.3c2.404,2.2 3.606,5.266 3.606,9.196l0,10.12c0,0.88 -0.144,1.555 -0.434,2.024c-0.29,0.47 -0.898,0.704 -1.825,0.704l-23.807,0c-1.448,0 -2.578,-0.557 -3.389,-1.672l0,7.832c0,1.467 0.493,2.699 1.477,3.696c0.985,0.998 2.202,1.496 3.65,1.496l21.548,0c0.29,0 0.521,0.088 0.695,0.264c0.174,0.176 0.261,0.411 0.261,0.704l0,6.336l-22.504,0Zm0,-36.784c-1.506,0 -2.737,0.44 -3.693,1.32c-0.956,0.88 -1.434,2.171 -1.434,3.872l0,4.752c0,0.528 0.29,0.851 0.869,0.968l20.245,0c0.29,0 0.521,-0.102 0.695,-0.308c0.174,-0.205 0.261,-0.425 0.261,-0.66l0,-4.752c0,-3.461 -1.68,-5.192 -5.04,-5.192l-11.903,0Z" style="fill:#666;fill-rule:nonzero;"/><path d="M348.059,91.567c-0.348,0 -0.637,-0.132 -0.869,-0.396c-0.232,-0.264 -0.348,-0.542 -0.348,-0.836l0,-7.04l6.864,0c0.348,0 0.638,0.132 0.869,0.396c0.232,0.264 0.348,0.572 0.348,0.924l0,6.952l-6.864,0Z" style="fill:#666;fill-rule:nonzero;"/><path d="M368.217,27.855c0.289,0 0.521,0.088 0.695,0.264c0.174,0.176 0.26,0.411 0.26,0.704l0,7.216l-6.603,0c-0.232,0 -0.449,-0.102 -0.652,-0.308c-0.202,-0.205 -0.304,-0.425 -0.304,-0.66l0,-7.216l6.604,0Zm0,19.712c0.289,0 0.521,0.088 0.695,0.264c0.174,0.176 0.26,0.382 0.26,0.616l0,43.12l-6.603,0c-0.232,0 -0.449,-0.102 -0.652,-0.308c-0.202,-0.205 -0.304,-0.425 -0.304,-0.66l0,-43.032l6.604,0Z" style="fill:#666;fill-rule:nonzero;"/><path d="M388.288,92.183c-2.317,0 -4.446,-0.572 -6.386,-1.716c-1.941,-1.144 -3.476,-2.698 -4.605,-4.664c-1.13,-1.965 -1.695,-4.121 -1.695,-6.468l0,-19.536c0,-2.288 0.565,-4.429 1.695,-6.424c1.129,-1.994 2.664,-3.564 4.605,-4.708c1.94,-1.144 4.069,-1.716 6.386,-1.716l11.469,0c2.317,0 4.446,0.587 6.386,1.76c1.941,1.174 3.49,2.743 4.649,4.708c1.158,1.966 1.738,4.092 1.738,6.38l0,19.536c0,2.347 -0.58,4.503 -1.738,6.468c-1.159,1.966 -2.708,3.52 -4.649,4.664c-1.94,1.144 -4.069,1.716 -6.386,1.716l-11.469,0Zm0,-37.928c-1.448,0 -2.665,0.514 -3.649,1.54c-0.985,1.027 -1.478,2.244 -1.478,3.652l0,20.24c0,1.467 0.493,2.714 1.478,3.74c0.984,1.027 2.201,1.54 3.649,1.54l11.469,0c1.448,0 2.679,-0.513 3.693,-1.54c1.013,-1.026 1.52,-2.273 1.52,-3.74l0,-20.24c0,-1.408 -0.507,-2.625 -1.52,-3.652c-1.014,-1.026 -2.245,-1.54 -3.693,-1.54l-11.469,0Z" style="fill:#666;fill-rule:nonzero;"/></g><g><path d="M56.243,26.279c0.454,0.305 0.726,0.815 0.726,1.362c0,0.546 -0.272,1.057 -0.726,1.362c-4.652,3.121 -15.935,10.691 -19.224,12.898c-0.552,0.371 -1.274,0.371 -1.827,0c-3.289,-2.207 -14.571,-9.777 -19.222,-12.898c-0.454,-0.305 -0.726,-0.816 -0.726,-1.362c0,-0.547 0.272,-1.057 0.726,-1.362c4.651,-3.121 15.933,-10.693 19.222,-12.901c0.553,-0.371 1.275,-0.371 1.828,0c3.288,2.207 14.572,9.779 19.223,12.901Z" style="fill:#ff5722;fill-rule:nonzero;"/><path d="M110.339,62.576c0.454,0.304 0.726,0.815 0.726,1.361c0,0.547 -0.272,1.058 -0.726,1.362c-4.651,3.122 -15.935,10.694 -19.224,12.901c-0.552,0.371 -1.275,0.371 -1.827,0c-3.289,-2.207 -14.571,-9.779 -19.222,-12.901c-0.454,-0.304 -0.726,-0.815 -0.726,-1.362c0,-0.546 0.272,-1.057 0.726,-1.361c4.651,-3.121 15.933,-10.692 19.222,-12.898c0.553,-0.371 1.275,-0.371 1.827,0c3.289,2.206 14.572,9.777 19.224,12.898Z" style="fill:#ff5722;fill-rule:nonzero;"/><path d="M83.29,80.725c0.454,0.305 0.726,0.816 0.726,1.362c0,0.547 -0.272,1.057 -0.726,1.362c-4.652,3.121 -15.935,10.692 -19.224,12.899c-0.552,0.371 -1.274,0.371 -1.827,0c-3.289,-2.207 -14.57,-9.778 -19.22,-12.899c-0.454,-0.305 -0.726,-0.815 -0.726,-1.362c0,-0.546 0.272,-1.057 0.726,-1.362c4.651,-3.121 15.931,-10.691 19.22,-12.898c0.553,-0.37 1.275,-0.37 1.827,0c3.289,2.207 14.572,9.777 19.224,12.898Z" style="fill:#ff5722;fill-rule:nonzero;"/><path d="M56.243,98.874c0.454,0.305 0.726,0.815 0.726,1.362c0,0.547 -0.272,1.057 -0.726,1.362c-4.652,3.121 -15.935,10.693 -19.223,12.9c-0.553,0.37 -1.275,0.37 -1.828,-0.001c-3.289,-2.206 -14.571,-9.778 -19.222,-12.899c-0.454,-0.305 -0.726,-0.815 -0.726,-1.362c0,-0.547 0.272,-1.057 0.726,-1.362c4.651,-3.121 15.933,-10.691 19.222,-12.897c0.553,-0.371 1.275,-0.371 1.827,0c3.289,2.206 14.572,9.776 19.224,12.897Z" style="fill:#ff5722;fill-rule:nonzero;"/><path d="M70.066,101.41c-0.454,-0.304 -0.726,-0.815 -0.726,-1.362c0,-0.546 0.272,-1.057 0.726,-1.361c4.651,-3.122 15.934,-10.694 19.223,-12.901c0.552,-0.371 1.275,-0.371 1.827,0c3.289,2.207 14.572,9.779 19.223,12.901c0.454,0.304 0.726,0.815 0.726,1.361c0,0.547 -0.272,1.058 -0.726,1.362c-4.651,3.121 -15.934,10.692 -19.223,12.898c-0.552,0.371 -1.275,0.371 -1.827,0c-3.289,-2.206 -14.572,-9.777 -19.223,-12.898Z" style="fill:#646464;fill-rule:nonzero;"/><path d="M15.97,65.111c-0.454,-0.305 -0.726,-0.815 -0.726,-1.362c0,-0.547 0.272,-1.057 0.726,-1.362c4.651,-3.121 15.934,-10.693 19.223,-12.901c0.553,-0.371 1.275,-0.371 1.828,0c3.288,2.207 14.571,9.779 19.222,12.9c0.454,0.305 0.726,0.815 0.726,1.362c0,0.547 -0.272,1.057 -0.726,1.362c-4.651,3.121 -15.935,10.692 -19.224,12.899c-0.552,0.371 -1.274,0.371 -1.827,0c-3.289,-2.207 -14.571,-9.777 -19.222,-12.898Z" style="fill:#828282;fill-rule:nonzero;"/><path d="M43.019,46.961c-0.454,-0.304 -0.726,-0.815 -0.726,-1.362c0,-0.546 0.272,-1.057 0.726,-1.361c4.652,-3.121 15.934,-10.691 19.223,-12.897c0.552,-0.371 1.275,-0.371 1.827,0c3.289,2.206 14.57,9.776 19.221,12.897c0.454,0.304 0.726,0.815 0.726,1.361c0,0.547 -0.272,1.058 -0.726,1.362c-4.651,3.122 -15.932,10.693 -19.221,12.9c-0.552,0.371 -1.275,0.371 -1.827,0c-3.289,-2.207 -14.572,-9.778 -19.223,-12.9Z" style="fill:#a0a0a0;fill-rule:nonzero;"/><path d="M70.066,28.814c-0.454,-0.304 -0.726,-0.815 -0.726,-1.362c-0.001,-0.546 0.272,-1.057 0.726,-1.361c4.651,-3.122 15.934,-10.695 19.223,-12.902c0.552,-0.371 1.275,-0.371 1.827,0c3.289,2.207 14.572,9.78 19.223,12.902c0.454,0.304 0.726,0.815 0.726,1.361c0,0.547 -0.272,1.058 -0.726,1.362c-4.651,3.121 -15.934,10.692 -19.223,12.898c-0.552,0.371 -1.275,0.371 -1.827,0c-3.289,-2.206 -14.572,-9.777 -19.223,-12.898Z" style="fill:#bebebe;fill-rule:nonzero;"/></g></g></svg>